<?xml version="1.0" encoding="utf-8"?>
<!-- Generator: Adobe Illustrator 19.1.0, SVG Export Plug-In . SVG Version: 6.00 Build 0)  -->
<svg version="1.1" id="Layer_1" xmlns="http://www.w3.org/2000/svg" xmlns:xlink="http://www.w3.org/1999/xlink" x="0px" y="0px"
	 width="512px" height="512px" viewBox="0 0 512 512" style="enable-background:new 0 0 512 512;" xml:space="preserve">
<style type="text/css">
	.st0{fill-rule:evenodd;clip-rule:evenodd;fill:#003764;}
	.st1{opacity:0.25;clip-path:url(#SVGID_2_);}
</style>
<path class="st0" d="M95.5,416.5V95.5h320.9v320.9H95.5L95.5,416.5z M391.9,169.3l0.6-41.4H282.7h-21.6v42c0-0.6,4.8-0.6,4.8,0
	c1.8-13.2,5.4-27.6,20.4-31.8c9-1.8,25.8-3,25.8-1.8c0,0,0,60,0,102.6c0,45.6,3,47.4-23.4,47.4c-0.6,0-0.6,5.4,0,6h75.6v-6
	c-0.6,0-20.4,2.4-22.8-10.2l0.6-139.8c6.6,0,19.2-1.2,27,2.4c12.6,6,16.8,18.6,18.6,30.6H391.9L391.9,169.3z M245.5,169.3v-41.4
	H123.7c0,0,0.6,3,0.6,4.8c5.4,0,11.4,0,16.2,3c4.2,3,5.4,7.8,6,12v120l-1.8,9.6c-1.8,10.2-15.6,9-20.4,9.6v5.4l75.6-0.6v-5.4
	c-4.8,0-12.6,1.2-17.4-2.4c-4.2-3.6-4.8-10.2-5.4-15.6v-55.8c6,0,13.8,1.8,20.4,4.2c12.6,6,13.2,19.2,15.6,31.2h4.8v-75.6h-4.2
	c-1.8,10.2-3.6,19.8-10.8,27.6c-7.2,5.4-17.4,4.8-25.8,4.8v-66v-2.4c15,0,29.4-1.2,43.8,2.4c13.8,4.8,16.8,18,18.6,30.6H245.5
	L245.5,169.3z"/>
<g>
	<defs>
		<path id="SVGID_1_" d="M95.5,416.5V95.5h320.9v320.9H95.5L95.5,416.5z M391.9,169.3l0.6-41.4H282.7h-21.6v42c0-0.6,4.8-0.6,4.8,0
			c1.8-13.2,5.4-27.6,20.4-31.8c9-1.8,25.8-3,25.8-1.8c0,0,0,60,0,102.6c0,45.6,3,47.4-23.4,47.4c-0.6,0-0.6,5.4,0,6h75.6v-6
			c-0.6,0-20.4,2.4-22.8-10.2l0.6-139.8c6.6,0,19.2-1.2,27,2.4c12.6,6,16.8,18.6,18.6,30.6H391.9L391.9,169.3z M245.5,169.3v-41.4
			H123.7c0,0,0.6,3,0.6,4.8c5.4,0,11.4,0,16.2,3c4.2,3,5.4,7.8,6,12v120l-1.8,9.6c-1.8,10.2-15.6,9-20.4,9.6v5.4l75.6-0.6v-5.4
			c-4.8,0-12.6,1.2-17.4-2.4c-4.2-3.6-4.8-10.2-5.4-15.6v-55.8c6,0,13.8,1.8,20.4,4.2c12.6,6,13.2,19.2,15.6,31.2h4.8v-75.6h-4.2
			c-1.8,10.2-3.6,19.8-10.8,27.6c-7.2,5.4-17.4,4.8-25.8,4.8v-66v-2.4c15,0,29.4-1.2,43.8,2.4c13.8,4.8,16.8,18,18.6,30.6H245.5
			L245.5,169.3z"/>
	</defs>
	<clipPath id="SVGID_2_">
		<use xlink:href="#SVGID_1_"  style="overflow:visible;"/>
	</clipPath>
	<path class="st1" d="M333,33L155.8,490l97.6,56l192.7,17.5c0,0,107.3-158.6,104.9-165.6c-2.3-7-59.5-206.4-60.6-212.2
		C489.3,179.9,461.3,68,461.3,68L333,33z"/>
</g>
</svg>
