<?xml version="1.0" encoding="utf-8"?>
<!-- Generator: Adobe Illustrator 19.1.0, SVG Export Plug-In . SVG Version: 6.00 Build 0)  -->
<svg version="1.1" id="Layer_1" xmlns="http://www.w3.org/2000/svg" xmlns:xlink="http://www.w3.org/1999/xlink" x="0px" y="0px"
	 width="512px" height="512px" viewBox="0 0 512 512" style="enable-background:new 0 0 512 512;" xml:space="preserve">
<style type="text/css">
	.st0{fill:#003764;}
	.st1{fill-rule:evenodd;clip-rule:evenodd;fill:#00C4B4;}
	.st2{opacity:0.6;}
	.st3{fill:#022842;}
</style>
<g>
	<circle class="st0" cx="256" cy="256" r="189.7"/>
</g>
<g>
	<path class="st1" d="M445.3,252.8c-0.2-3.2,0.3-6.5-0.4-9.8c-0.3-1.4,0.2-2.8-0.4-4.3c-0.2-0.6,0-1.5-0.1-2.2
		c-0.1-0.8-0.3-1.5-0.3-2.2c-0.1-1.5-0.3-3-0.4-4.4c0-0.1,0-0.3,0-0.4c-0.5-1.1-0.5-2.4-0.7-3.6c-0.2-1-0.6-1.9-0.4-3
		c-0.7-1.5-0.7-3.3-1-4.9c-0.3-1.5-0.6-2.9-0.9-4.4c-0.3-1.6-0.9-3.3-1.3-4.9c-0.6-2.8-1.6-5.6-2.3-8.4c-0.2-0.8-0.3-1.9-1-2.6
		c0.1-1-0.5-1.8-0.7-2.6c-0.5-1.7-0.9-3.4-1.6-5c-1-2.1-1.7-4.4-2.7-6.6c-0.9-2.1-1.7-4.2-2.7-6.2c-1.3-2.8-2.7-5.5-4-8.2
		c-0.1-0.1-0.2-0.2-0.4-0.4c-0.3-1.1-0.7-2.1-1.5-2.9c-0.1-0.3,0.2-0.7-0.4-0.7c0-0.2,0.1-0.4,0-0.5c-1.6-2-2.5-4.5-3.9-6.6
		c-1-1.5-1.8-3.2-3-4.6c-0.3-0.4-0.5-0.9-0.8-1.3c-1.5-2.2-2.9-4.6-4.6-6.7c-0.9-1.1-1.4-2.6-2.7-3.3c0,0.7,0,1.4,0,2
		c0,0.4,0.2,0.8,0.4,1.1c0.1,0.2,0.5,0.2,0.8,0.2c0.5,0,0.7,0.3,1,0.7c0.6,1,1.5,1.9,1.8,2.9c0.3,1.2,1.7,1.7,1.7,3
		c0.9,1.1,1.5,2.4,2.1,3.7c-0.2,0.1-0.5,0.3-0.7,0.2c-0.3-0.1-0.6-0.4-0.9-0.4c-0.3,0-0.7,0.1-1,0.2c-0.9-0.7-1.6-1.4-2.6-2
		c-1-0.6-2.1-0.9-3-1.7c-0.7-0.6-1.8-0.9-2.4-1.6c-0.4-0.5-0.8-0.7-1.3-1c-0.6-0.5-1.3-0.7-1.8-0.4c0,1.6,0,1.8,0.7,2.7
		c0,0.1,0,0.2,0,0.4c-0.1,0.9,0.8,1.5,0.8,2.7c-1.3-0.7-2.1-1.8-3.2-2.3c-0.6-0.2-1.1-0.5-1.5,0.1c-0.4-0.4-0.8-0.7-1.4-0.7
		c-0.6-1.1-1.9-1.6-2.2-2.9c-0.3-0.3-0.6-0.7-1.1-0.7c-0.6,0-1.1-0.3-1.5-0.7c-0.2-0.3-0.6-0.1-0.7-0.4c-0.8-0.3-1.7-0.6-2.5-0.1
		c0,0,0,0.1-0.1,0.1H388c0.1-0.6-0.2-1-0.7-1.1c-0.8-0.2-1.3-0.7-1.8-1.2c-0.1-0.1-0.3-0.3-0.4-0.3c-0.7,0-1.2-0.6-1.9-0.7
		c-0.3-0.6-0.7-1.2-0.2-1.7c0.5-0.7,0-1.1-0.1-1.6c-0.8-0.8-1.1-2-2.2-2.6c0,0.2,0,0.3,0,0.5c0-0.1,0-0.3,0-0.5
		c-0.2-0.1-0.5-0.2-0.7-0.4v-0.4c0-0.8,0-1.5-1.1-1.5c-0.1,0-0.3-0.3-0.4-0.4c-0.3-0.4-0.6-0.7-0.9-1c-0.4,0.2-0.8,0.3-1,0.5
		c-0.6,0.6-1.1,0.7-1.9,0.4c-0.4-0.2-0.9-0.1-1.3-0.1l-1.3,0c-0.3,0-0.9,0.1-0.9,0.1c-0.1,0.7-0.4,0.7-0.8,0.3l-0.7-0.4
		c-0.1-0.1-0.1-0.4-0.2-0.4c-0.5-0.2-1.1-0.4-1.7-0.3c-0.4,0.1-0.8,0-1.1,0.2c-0.3,0.1-0.6-0.3-1,0.1c-0.2,0.3-0.9-0.1-1.3,0.3
		c-0.3,0.2-0.8-0.2-1.2-0.2c-0.6-0.1-0.4,0.4-0.5,0.7c0.1,0.1,0.2,0.2,0.3,0.3c0,0,0,0,0,0c-0.1-0.1-0.2-0.2-0.3-0.3h-0.4
		c-0.1,0.1-0.2,0.3-0.4,0.4c-0.3,0.1-0.6-0.2-0.7,0.3c-0.1,0.6-0.4,0.8-1,0.6c-0.1-0.1-0.9,0.3-0.5,1.1c0.2,0.3-0.2,0.2-0.4,0
		c0,0-0.2,0-0.2,0c0.1,0.8-0.7,0.6-1,0.9c-0.3-0.5-0.9,0.3-1.2-0.3c-0.1,0-0.1,0.1-0.2,0.2c-0.1-0.1-0.1-0.1-0.2-0.2
		c-0.2-0.2-0.5-0.1-0.7-0.4H355c-0.1,0.1-0.1,0.1-0.2,0.2c-0.8-0.6-1.6-0.4-2.4,0.2c-0.1-0.1-0.3-0.2-0.4-0.3
		c-0.1-0.1-0.2-0.3-0.4-0.5c-0.2-0.2-0.5-0.3-0.7-0.4c-0.2,0-0.4-0.1-0.6-0.1c0.1-0.2,0.2-0.3,0.3-0.5c0,0,0-0.1,0-0.2
		c-0.2-0.2-0.5-0.1-0.7-0.4c-0.1,0-0.1,0-0.2,0c-1.2-0.3-1.1-0.2-1.3,0.9c-0.1,0.6,0.8,1,0.1,1.5c0.9,0.5-0.3,1.1,0.1,1.5
		c0.3,0.3,0.2,0.4,0,0.7c-0.5,0.4-1.2,0.7-1.5,1.2c-0.4,0.7-0.9,1-1.6,0.9c0,0-0.1,0.1-0.1,0.1c-0.3,0.7-0.6,1.3-0.8,2
		c-0.1,0.3,0.3,0.8,0.2,1c-0.3,0.4-0.2,0.8-0.2,1.2l-0.4,0.4c-0.1,0-0.2,0.1-0.3,0.1c0.1,0.1,0.2,0.2,0.3,0.2v0.4
		c0.1,0.9,0.3,1.8,1.1,2.4c0.3,0.3,0.4,0.6,0.3,0.9c-0.1,0.8-0.2,1.7-0.4,2.5v0.4c-0.3,0-0.7-0.2-0.8,0.4c0,0.2-0.2,0.5-0.4,0.7
		c-0.4,0.4-0.7,0.7-1.1,1.1c-0.8,0.6-1.6,1-2.6,1.1c-1.5,0.2-2.1,0.9-2.1,2.4c0,0.1,0,0.1,0,0.2c0,1.1-0.3,1.9-1.4,2.3
		c-0.6,0.2-0.8,0.7-1.1,1.2c-0.2,0.3,0.1,0.8-0.1,1c-0.3,0.3-0.2,0.5,0,0.8c0.1,0.3-0.2,0.6-0.3,0.9c0,0.3-0.1,0.6,0.4,0.6
		c-0.3,1.3-1.1,2.4-2.2,3.3c-0.3,0.3-0.6,0.6-0.4,1.1c0,0.3,0,0.7,0,1c0,0.2-0.2,0.3-0.4,0.4c0.2,1-0.5,1.9-0.5,2.8
		c0,0-0.4,0.1-0.6,0.1c-0.7,0-0.6,0.3-0.4,0.7c0.1,0.1,0.2,0.2,0.4,0.4v2.2c-0.5,0-0.5,0.4-0.3,0.6c0.6,0.6,1.2,1.1,1.8,1.6
		c0.4,0.3,0.7,0.6,0.6,1.1c0.5,0.4,0.8,0.8,0.7,1.5c-1.1,1-0.9,2,0,2.9c0.1,0.1,0.3,0.2,0.4,0.3c0.1,0.1,0.2,0.3,0.4,0.5
		c0,0.6,0.3,1.1,0.7,1.5v1.5c0.1,0.3-0.2,0.7,0.4,0.7c0.3,0.4-0.5,0.7-0.2,1.2c0.2,0.3-0.1,0.9-0.2,1.4c-0.1,0.2-0.3,0.3-0.4,0.5
		c0,0.6,0.1,1.3-0.1,1.8c-0.2,0.6,0,1.1,0,1.7c0,1.2-1.1,2.1-1.3,3.3c0,0.3-0.5,0.4-0.8,0.7c0.3,0.2,0.7,0.4,1,0.7
		c0.2,0.2,0.2,0.5,0.4,0.7c0.5,0.7,0.9,1.3,1.4,2c0,0,0,0,0,0c-0.4,0.5-0.2,1.2-0.4,1.8c-0.5,1.9,0,3.5,1.7,4.5c1.6,1,2.9,2.1,4,3.8
		c1.4,1.9,3.2,3.9,5.5,5.1c0,0,0.1,0,0.1,0c-0.1,0.1-0.1,0.2-0.1,0.3c0.1,0.7,0.7,0.9,1.1,1.4c0.1,0.1,0.1,0.3,0.2,0.4
		c0,0.1,0.1,0.3,0.1,0.4c0.1,0.3,0.1,0.5,0.1,0.8c0,0.1,0.1,0.3,0.1,0.4c0.3,0.4,0.3,1,0.8,1.3c0.2,0.2,0.7,0.5,0.7,0.5
		c-0.6,0.8,0.4,1.2,0.6,1.2c0.6,0.1,1,0.5,1.1,0.9c0.2,0.7,0.7,0.8,1.1,1c1.2,0.4,2.1,1.2,2.8,2.3c0.1,0.1,0.3,0.2,0.4,0.2
		c0.4,0.2,1.3,0,1.1,0.9c0,0.1,0.3,0.2,0.5,0.3c0.4,0.3,0.9,0.6,1.2,0.9c0.6,0.5,1.3,1.1,1.9,1.7c0.1,0.3-0.2,0.6,0.3,0.7
		c0.4,0.1,1.1,0.3,1.1,0.6c0.1,0.6,0.5,0.8,0.9,1.1c0.4,0.4,0.8,0.6,1.2,0.9c0.7-0.9,0.4,0.5,0.8,0.3c0.1,0,0.1-0.2,0.1-0.3h0.4
		c0,0.1,0,0.2,0,0.4c0,0.1,0.1,0.2,0.1,0.3c0.1-0.1,0.2-0.2,0.2-0.3c0.2,0.4,0.6-1.1,0.7,0.1c0.1,0.7,0.7-0.5,0.8,0.2
		c0.1-0.1,0.2-0.1,0.3-0.2c0.1-0.1,0.2-0.3,0.4-0.4c0.1-0.1,0.2-0.3,0.4-0.4c0.4-0.1,0.8,0,1.2-0.2c1-0.5,2.1-1,3.3-0.9
		c0.6,0,1.3-0.2,1.9-0.3c0.2,0,0.3-0.6,0.7-0.2c0.2,0.3,0.5-0.5,0.8,0c0.8,0,1.6,0,2.4,0c0.1,0,0.3-0.1,0.4-0.1
		c0.4,0.3,0.8,0.6,1.1,0.9c0.3,0.2,0.5-0.7,0.8-0.1c0.2,0.3,0.4,0.5,0.6,0.6c0.4,0.1,0.9-0.3,1.4,0.1c0.2-0.9,1.1-0.8,1.7-1.1
		c0.5-0.3,1.5-0.4,1.3-1.4c0.1-0.1,0.2-0.2,0.4-0.4h0.4c1.1,0.1,1.1-0.8,1.3-1.8c0.1,1.2,0.8,0.8,1.2,1c0.2-0.6,0.7,0.3,0.7,0
		c0.1-1,1-0.9,1.5-1.1c0.4-0.2,0.7-0.3,1.1-0.4c0.3-0.1,0.9-0.1,0.9-0.3c0.3-0.6,0.7,0.4,1-0.1c0.2-0.3,0.5,0.5,0.8,0
		c0.3,0.1,0.6,0.2,0.9-0.1c0.5-0.5,1-0.1,1.5,0.1c0.3,0.1,0.4,0.5,0.7,0.6c1.1,0.4,1.6,1.5,2.3,2.2c0,0,0.1,0,0.2,0
		c0.1,0,0.1,0.1,0.1,0.1c0,0.5,0.1,1.1,0.1,1.6c0,0.1,0.2,0.1,0.3,0.1c-0.1,0.7,0.3,1.2,0.5,1.8c0.1,0.3,0.3,0.5,0.5,0.7
		c0.4-0.6,0.9,0.6,1.3-0.1c0.1-0.1,0.7-0.1,0.9,0c0.3,0.2,0.4,0.1,0.5-0.1c0.1-0.2,0.3-0.3,0.5-0.4c0.4,0.6,0.9-0.1,1.1,0.1
		c0.8,0.6,0.7-0.7,1.2-0.5c0.1,0.2,0.2,0.3,0.4,0.5c0.1,0.1,0.2,0.2,0.4,0.3c0.2,0,0.4,0,0.5,0.1c-0.2,0-0.4,0-0.7,0
		c-0.5,1.2,0.3,1.9,1,2.7c0.9,1.1,1.2,2.4,1,3.8c-0.4,3.6-0.2,7.2-1,10.7c-0.2,0.9-0.8,1.8-0.5,2.8c0.6,2.1,1.1,4.1,2,6.1
		c1.2,2.7,3.2,5.1,3.4,8c0.2,2.2,0.3,4.4,0.5,6.6c0.1,2,1,4,0.4,6c-0.5,1.9-0.5,3.8-0.4,5.6c0.3,3.1-0.3,6-2.1,8.5
		c-0.9,1.2-1.5,2.5-2,3.9c-0.8,2.3-1.5,4.6-2.4,6.9c-1,2.6-2.4,5.3-1.9,8.1c0.7,4.3-0.1,8.5,0,12.8c0,0.6-0.2,1.2-0.4,1.8
		c-2.3,4.7-3.8,9.6-4.5,14.7c-0.6,3.8-1.7,7.5-2.4,11.2c-0.1,0.4-0.1,0.7-0.2,1.1c-0.3,1.3,0.1,2.1,1.6,1.9c1.3-0.1,1.8,0.2,1.3,1.6
		c-0.3,1.2,0.6,1.8,1.8,1.3c1-0.4,1.8-0.9,2.6-1.6c2.5-2.2,4.5-4.9,6.6-7.3c5.6-6.4,8.9-14.3,13.8-21.2c0.3-0.4,0.4-0.9,0.6-1.3
		c2.3-4.5,3.3-9.6,5.7-14.1c1.2-2.3,1.8-4.8,3.2-7c0.4-1,0.9-2,1.1-3c0.4-2.1,1.1-4.1,1.7-6.1c0.5-2.1,0.9-4.2,1.6-6.3
		c0.3-0.8,0-1.9,0.5-2.6c0.5-0.8,0.2-1.7,0.6-2.5c0.4-0.8,0.3-1.9,0.4-2.9c0.1-0.9,0.5-1.8,0.4-2.8c0.8-1.7,0.6-3.5,1.1-5.2
		c0.3-0.9,0.1-2,0.4-3c0.2-0.9,0.2-2,0.4-3c0.3-1.3,0.2-2.7,0.4-4.1c0.4-2.9,0.3-5.9,0.4-8.8c0-1.3,0-2.7,0-4c0-0.2,0.2-0.3,0.4-0.5
		v-5.5C445.5,253.1,445.3,252.9,445.3,252.8z"/>
</g>
<g>
	<path class="st1" d="M305.1,437.7c-4.8,0.7-9.6,1.5-14.5,2c-2.5,0.2-4.9,0.5-7.4,1c-3.6,0.7-7,2-10.7,2.4c-3.1,0.3-6.2,0.3-9.3,0.9
		c-0.2,0-0.4,0.1-0.6,0.1c-0.8,0.1-1.7,0-2.5,0.2c-0.3,0.1-0.7,0.2-1,0.2c-0.7,0-1.4,0-2,0c-0.2,0-0.4,0-0.5,0
		c-1.1,0.3-2.4-0.7-3.3,0.5c0,0.2,0,0.5,0,0.7c1.8,0,3.7,0,5.5,0c0.2-0.1,0.3-0.3,0.5-0.4c3.3-0.1,6.6,0.2,9.9-0.4
		c1.3-0.2,2.7,0.2,4.1-0.3c0.7-0.3,1.6,0,2.4-0.1c0.7-0.1,1.5-0.4,2.2-0.3c1.5,0,2.9-0.7,4.4-0.4c0.7-0.5,1.7-0.1,2.4-0.4
		c0.5-0.2,1-0.2,1.5-0.3c0.6-0.1,1.1-0.3,1.7-0.4c1.1-0.1,2.3-0.1,3.3-0.4c1.6-0.5,3.3-0.6,4.9-1.1c1.2-0.3,2.5-0.5,3.7-0.8
		c1.3-0.3,2.6-0.7,4-1c1.3-0.3,2.6-0.7,3.9-1.1C307.1,436.9,306,437.6,305.1,437.7z"/>
</g>
<g>
	<path class="st1" d="M238.9,444c-1.1-0.6-2.4-0.7-3.6-0.9c-0.9-0.1-1.6-0.2-2.2-0.9c-0.5-0.6-1.1-0.9-1.9-1.2
		c-0.9-0.3-1.8-0.5-2.4-1.3c-0.1-0.1-0.3,0-0.5,0c-0.2-0.2-0.5-0.5-0.7-0.7c-0.1,0-0.1,0-0.2,0c-0.5-0.4-0.8-1.2-1.5-0.4
		c0,0-0.3-0.1-0.5-0.1c-0.5-0.2-0.9-0.6-1.6-0.6c-0.2,0-0.4-0.5-0.7-0.7c0.4-0.3,0.8-0.6,0.4-1.1c0-1.1,0-1.1-1.1-1.1
		c-0.2-0.2-0.5-0.2-0.7,0c0.4,0.7,0.3,0.8-0.5,1.1c-0.4,0.1-0.2,0.5-0.3,0.7c-0.4,0.6,0.1,0.8,0.5,1c0.6,0.3,1.3,0.5,1.6,1.3
		c0,0.1,0.1,0.1,0.1,0.1c0.1-0.1,0.1,0,0,0c0,0,0,0,0,0c-0.2,0.1-0.1-0.2-0.3-0.2c-0.7-0.4-1.4-0.6-2.2-0.1c-0.3,0.8,0.3,1,0.8,1.2
		c0.7,0.3,1.3,0.6,1.8,0.8c-1.4,0.6-2.9-1.2-4.5,0.3c-0.2-0.1-0.4-0.3-0.6-0.3c-0.1,0-0.3,0.2-0.5,0.2c-0.9-0.2-1.8-0.6-2.8-0.6
		c-0.3,0-0.6-0.2-0.9-0.3c-0.1,0.1-0.3,0.1-0.4,0.4c0,0.1,0.1,0.3,0.1,0.3c1.7-0.1,3.1,0.9,4.8,0.8c1.5,0.8,3.3,0.6,4.9,1.1
		c1.1,0.3,2.4,0.1,3.5,0.5c0.8,0.3,1.6,0,2.2,0.4c0.8,0.4,1.6,0.2,2.4,0.3c0.2,0,0.4-0.1,0.5,0c0.8,0.7,1.8,0.1,2.6,0.4
		c0.9,0.2,1.7,0.4,2.6,0.4c0.8,0,1.6-0.2,2.4,0.3c0.2,0.1,0.7-0.2,1.1-0.3c-0.2-0.1-0.3-0.3-0.5-0.4
		C239.8,444.1,239.3,444.2,238.9,444z"/>
</g>
<g>
	<path class="st1" d="M249.6,444.8c-1.1-0.5-2.2-0.2-3.3-0.1c0,0-0.1,0.4-0.1,0.6c0.2-0.1,0.6-0.4,0.7-0.3c0.9,0.6,2,0.2,2.9,0.3
		c0,0,0.1,0,0.1-0.1c0-0.1,0-0.2-0.1-0.2C249.8,444.9,249.7,444.9,249.6,444.8z"/>
</g>
<g>
	<path class="st1" d="M244.1,444.9c0.1,0.1,0.3,0.3,0.4,0.4c0.3,0.1,0.7,0,1,0c0-0.2-0.1-0.4-0.1-0.7
		C245,444.7,244.4,444.2,244.1,444.9z"/>
</g>
<g>
	<path class="st1" d="M250.7,444.6c0,0.2,0,0.5,0,0.7c0.2-0.1,0.5-0.2,0.7-0.4C251.4,444.4,251,444.6,250.7,444.6z"/>
</g>
<g>
	<path class="st1" d="M251.8,444.9c0.1,0,0.2,0,0.4,0c0-0.1-0.1-0.2-0.1-0.3C251.9,444.7,251.9,444.8,251.8,444.9z"/>
</g>
<g>
	<path class="st1" d="M252.5,444.9c0.1,0,0.2,0,0.4,0c0-0.1-0.1-0.2-0.1-0.3C252.7,444.7,252.6,444.8,252.5,444.9z"/>
</g>
<g>
	<path class="st1" d="M242.2,70.4C242.2,70.4,242.2,70.4,242.2,70.4c0.1,0.2,0.3,0.3,0.4,0.4c0.1,0.1,0.2,0.2,0.3,0.3
		c0,0.1-0.1,0.2-0.2,0.3c-0.9-0.6-2-0.2-2.9-0.3C240.7,71.2,241.4,70.6,242.2,70.4z M254.1,69.6C254,69.6,254,69.6,254.1,69.6
		C254,69.6,254,69.6,254.1,69.6C254,69.6,254,69.6,254.1,69.6z M265,69.3c0,0,0,0.1,0,0.1C264.9,69.4,264.9,69.3,265,69.3z
		 M267.5,67.2c-0.1,0-0.1,0-0.2-0.1C267.4,67.1,267.5,67.1,267.5,67.2z M265,70C265,70,265,70,265,70C265,70,265,70,265,70
		C265,70,265,70,265,70C265,70,265,70,265,70C265,70,265,70,265,70z M262.5,70C262.5,70,262.5,70,262.5,70c0.1-0.1,0.1-0.1,0.2-0.1
		c0,0,0,0,0,0.1C262.6,70,262.6,70,262.5,70z M261.8,70C261.8,70,261.8,69.9,261.8,70c0.1-0.1,0.1-0.1,0.2-0.1c0,0,0,0,0,0.1
		C261.9,70,261.8,70,261.8,70z M261,69.9c0.1,0,0.2,0,0.3,0c0,0.1,0,0.3,0,0.4C261.1,70.2,261.1,70,261,69.9z M256.1,69.1
		C256.1,69.1,256.1,69.1,256.1,69.1C256.2,69.1,256.1,69.1,256.1,69.1C256.1,69.1,256.1,69.1,256.1,69.1z M252.2,70
		c0-0.2,0-0.5-0.1-0.7c0.1,0,0.2,0.1,0.3,0.1c0,0.2,0,0.4,0,0.6C252.4,70,252.3,70,252.2,70z M250.4,69.2c0,0,0.1,0,0.1,0
		c0,0.1-0.1,0.1-0.1,0.2C250.4,69.3,250.4,69.3,250.4,69.2z M248.7,69.6C248.7,69.6,248.7,69.6,248.7,69.6
		C248.7,69.6,248.7,69.6,248.7,69.6C248.7,69.6,248.7,69.6,248.7,69.6z M241.1,73.6c-0.1,0-0.2,0.1-0.3,0.1c0,0,0-0.1,0-0.1
		C240.9,73.6,241,73.6,241.1,73.6z M234.1,68.5c0.6,0,1.2,0.1,1.8,0c0.4,0,0.8-0.2,1.2-0.3c0.1,0.1,0.1,0.2,0.2,0.2
		c0.4,0.2,0.8,0.2,1.2,0.2c1,0.1,2.3,0.1,0.7,1.5c-0.7,0.6-0.1,0.9,0.5,1c0,0,0,0,0,0c-0.4,0.1-0.8,0.2-1.1,0.4
		c-0.1,0.1-0.2,0.2-0.3,0.3c0.1,0.1,0.3,0.4,0.4,0.4c1,0,2,0.2,3-0.3c0.5-0.3,0.7,0.2,0.6,0.7c-1.7-0.3-3.2,0.5-4.8,1.1
		c-0.2,0.4,0.4,1-0.5,1.1c-0.4,0.1-0.4,0.4-0.1,0.7c0.4,0.4,0.6,0.8,0.6,1.4c0.1,0.6,0.3,1.2,0.9,1.5c0.1,0.1,0.1,0.2,0.2,0.3
		c0,0,0,0,0,0c0.2,0.7,1.1,0.8,1.3,1.4c0.2,0.6,0.5,0.6,0.9,0.6c0.1,0.1,0.2,0.2,0.3,0.2c0,0.2,0,0.4,0.3,0.5c0.1,0,0.2-0.1,0.3-0.2
		c0.1,0.1,0.3,0.1,0.4,0.1c0.4,0.1,0.9,0.1,1.3,0.1c0.3,0,0.5,0,0.8,0c0.6,0.1,1.2,0.2,1.7,0.5c2.6,1.3,3,1.3,5-0.9
		c0.3-0.3,0.6-0.6,0.8-1c0.1-0.2,0.1-0.3,0.1-0.5c0-0.6,0.5-0.7,0.9-0.9c0.2-0.1,0.3-0.1,0.5-0.2c0.8-0.4,1.5-0.9,1.5-1.9
		c0.3-0.1-0.7-0.5,0.1-0.5c0.5,0,0.9-0.1,1.4-0.2c0.2,0,0.5-0.1,0.7-0.1c0.2,0,0.3,0,0.5-0.1c0.6-0.2,1.2,0,1.9-0.1
		c0.5-0.1,1.1-0.2,1.7-0.2c0.2,0,0.3-0.1,0.5-0.1c0.4-0.1,0.8-0.2,1.2-0.3c0.4-0.1,0.8-0.3,1-0.7c0.1-0.1,0.2-0.2,0.4-0.4
		c0.1-0.1,0.2-0.2,0.4-0.4c0.2-0.2,0.5-0.2,0.8-0.2c0.2,0,0.3,0,0.4-0.1c0.3-0.3,0.6-0.3,1-0.1c0.3-0.1,0.7-0.2,1-0.3
		c0.1,0.1,0.2,0.2,0.3,0.2c3,0.5,5.9,0.4,8.3-1.8c0.1-0.2,0-0.4-0.1-0.5c-0.2-0.2-0.4-0.3-0.7-0.4c-0.6-0.6-1.7,0-2.2-0.8
		c0.3,0,0.6,0.1,0.7-0.3c0-0.1-0.2-0.4-0.3-0.4c-0.6-0.2-1-0.7-1.7-0.8c-0.1-0.1-0.1-0.2-0.2-0.2c-0.4-0.2-0.8-0.2-1.2-0.3
		c-0.1,0-0.1,0-0.2,0c0-0.1-0.1-0.3-0.4-0.3c-0.5-0.1-1.1,0.4-1.4-0.3c-0.7-0.5-1.5-0.3-2.2-0.4c-1.5,0-2.9,0-4.4,0
		c-0.4,0-0.7,0-1.1,0c-0.5,0-0.9,0-1.4,0c-0.2,0-0.3-0.2-0.4-0.4c-1.8,0-3.7,0-5.5,0c-0.2,0.1-0.3,0.4-0.5,0.4c-1.9,0-3.8,0.1-5.6,0
		c-1.9-0.1-3.8,0.6-5.7,0.4c-0.6,0-1.2,0-1.8,0c-0.2,0-0.3,0.2-0.4,0.4c-0.6,0-1.2,0-1.8,0c-0.5,0-1,0-1.5,0
		c-0.7,0.1-1.4,0.3-2.1,0.4c-0.1,0-0.1,0.2-0.1,0.3C233.9,68.3,234,68.5,234.1,68.5z"/>
</g>
<g>
	<path class="st1" d="M203.8,73.8c-0.1,0-0.1,0.4-0.1,0.6c1,0.1,1.8-0.4,2.6-1.1C205.4,73.5,204.6,73.6,203.8,73.8z"/>
</g>
<g>
	<path class="st1" d="M232.8,67.8c-0.2,0.1-0.3,0.2-0.5,0.4c0.2,0,0.5,0,0.7,0C233,68.1,232.9,67.9,232.8,67.8z"/>
</g>
<g>
	<path class="st1" d="M401.5,134.7c-1.7-2-3.4-4.1-5.3-6c-0.1-0.1-0.1-0.2-0.1-0.3c-0.1-0.1-0.2-0.3-0.4-0.4
		c-0.2-0.2-0.5-0.5-0.7-0.7c-0.6,0-1.2-0.2-1.2,0.8c0,0.6-0.3-0.1-0.5-0.1c-0.1,0-0.2,0-0.4,0c0,0.1,0,0.3,0.1,0.4
		c0.6,0.3,1.1,0.6,0.9,1.4c-0.2,0-0.5-0.1-0.7-0.1c-0.1,0-0.3-0.1-0.4-0.1c0,0.1-0.1,0.3,0,0.3c0.2,0.3,0.5,0.7,0.7,0.8
		c0.6,0.1,0.7,0.7,1,1.1c0.3,0.4,0.6,0.9,0.9,1.3c0.4,0.5,1.2,0.9,1.3,1.5c0.2,0.8,0.9,0.7,1.2,1.1c0.4,0.5,0.7,1,1.1,1.6
		c1,1,2.3,1.5,3,2.8c0.1,0.1,1,0.2,1.1,0.2c0.1,0,0.3-0.1,0.3-0.1c0.4,0.4,1.2,0.3,1.4,1.1c0.1,0.5,0.4,0.4,0.7-0.1
		c0.1-0.1,0.2-0.2,0.4-0.3c0-0.7-0.4-1.2-0.8-1.7C404,137.7,402.8,136.2,401.5,134.7z"/>
</g>
<g>
	<path class="st1" d="M322.2,78.9C322.2,78.9,322.2,79,322.2,78.9C322.2,79,322.2,79,322.2,78.9C322.2,78.9,322.2,78.9,322.2,78.9z
		 M331.1,84.6c-0.2,0-0.3,0-0.4,0c0-0.1,0-0.1,0.1-0.2c0,0,0,0,0,0C330.8,84.5,330.9,84.6,331.1,84.6z M313,75.9
		c1.6,0.4,3.1,1,4.4,2.3c0.3,0.3,0.6,0.6,1,0.6c0.8,0.2,1.5,0.7,2.1,1.2c0.5,0.4,1.2,1,1.1,1.8c-0.1,0.4-0.6,0.9-0.3,1.3
		c0.3,0.3,0.8,0.3,1.2,0.6c0.5,0.3,1,0.8,1.6,1.1c1.9,1,3.9,1.8,5.4,3.3c0.1,0.1,0.4,0,0.5,0c0.5,0.8,1.5,0.3,2.2,0.7
		c0.1,0,0.4-0.1,0.4-0.2c0.1-0.3,0.1-0.6,0-0.9c-0.1-0.9,0.4-0.3,0.7-0.4c0.6-0.1,0.8-0.3,1,0.4c0,0.2,0.4,0.3,0.5,0.4
		c0.1-0.2,0.3-0.6,0.4-0.6c0.3,0,0.6,0.1,0.9,0.3c0.2,0.1,0.3,0.3,0.4,0.3c0.1,0,0.4-0.1,0.4-0.2s0-0.4-0.1-0.5
		c-0.3-0.2-0.7-0.3-0.8-0.5c-0.3-0.5-0.6,0.2-0.8,0c-0.2-0.3-0.3-0.6-0.5-0.9c-0.2-0.2-0.5-0.3-0.7-0.4c-0.7-0.1-1-1-1.5-1.1
		c-0.7-0.1-1.2-0.5-1.6-1c-0.8-0.9-1.8-1.5-2.8-2c-0.4-0.2-0.9-0.4-1.3-0.6c0-0.1,0-0.1,0-0.2c0.2,0,0.5,0,0.7,0
		c-0.1-0.1-0.2-0.3-0.3-0.4c-1.3-0.5-2.6-1.1-3.9-1.5c-0.8-0.2-1.4-1-2.4-0.8c-0.2-0.7-0.7-0.2-1.1-0.4c-0.4-0.6-1-0.5-1.6-0.7
		c-1.8-0.7-3.6-1.2-5.4-1.9C312.8,75.4,312.6,75.8,313,75.9z"/>
</g>
<g>
	<path class="st1" d="M406,140.9c0.1,0.8,0.3,1,1.1,1.1C407,141.2,406.8,141,406,140.9z"/>
</g>
<g>
	<path class="st1" d="M399.1,365c0.2-0.2,0.3-0.5,0.3-0.8c0-0.1-0.1-0.4-0.2-0.4c-0.3-0.2-1.9,0.2-1.9,0.5c-0.1,1.2-1.3,2.1-0.7,3.5
		c0.8,0.2,1.4,0,2.2-0.3c0.8-0.3,0.8-0.3,0.4-0.8C398.5,365.8,398.5,365.8,399.1,365z"/>
</g>
<g>
	<path class="st1" d="M220.6,439.1c-0.1-0.6-0.5-0.8-1.1-0.7c-0.1,0-0.2,0-0.4,0c-0.1,0-0.2,0.1-0.3,0.1c0.1,0.1,0.2,0.2,0.3,0.2
		C219.5,439,220,439.1,220.6,439.1z"/>
</g>
<g>
	<path class="st1" d="M87.4,177.6c0.1-0.1,0.3-0.3,0.3-0.4c-0.1-1.4,0.3-2.6,1-3.7c0.3-0.5,0.3-1.2,0.5-1.8c0-0.1-0.1-0.2-0.1-0.3
		c0,0-0.1,0-0.1,0c-0.6,1.6-1.9,2.9-1.6,4.9c0,0.3-0.2,0.6-0.3,0.9C87.1,177.4,87.2,177.5,87.4,177.6z"/>
</g>
<g>
	<path class="st1" d="M91.2,166.1c0.2-0.2,0.4-0.8-0.3-1c-0.7,1.1-1.1,2.3-1.3,3.7c0,0.1,0,0.3,0,0.4c0.2,0,0.4,0,0.5,0
		C90.6,168.2,90.5,167,91.2,166.1z"/>
</g>
<g>
	<path class="st1" d="M394,135.3c0-0.1,0-0.3,0.1-0.3c0.3-0.1,0.7,0,0.2-0.5c-0.2-0.2,0-0.6-0.6-0.7c-0.6-0.1-1-0.8-1.6-1
		c-0.7-0.3-0.9-0.9-1.2-1.4c-0.5-0.8-1.1-1.5-1.8-1.9c-0.7-0.4-0.5-0.7-0.3-1.1c0.1-0.4,0.3-0.8,0.4-1.1c0-0.1,0-0.3,0-0.4
		c0.1,0,0.3-0.1,0.4,0c0.5,0.5,0.9,1,1.5,1.4c0.1,0.1,0.5-0.1,0.7-0.3c0.1,0,0-0.2,0-0.4c-0.8,0-0.7-1-1.3-1.3
		c-1.2-0.7-2.1-1.6-2.6-2.9c0-0.1-0.2-0.1-0.3-0.1c-0.1,0-0.3,0-0.4,0v-0.6c-0.1-1-0.5-1.4-1.1-1.5l-0.4-0.4c0-0.2,0.1-0.4,0-0.5
		c-0.8-0.9-1.6-1.9-2.4-2.8c-0.3-0.4-0.6-0.7-0.9-1.1c1,0,1,0,1.1-0.7c-1.5-1-2.5-2.4-3.9-3.4c-1.6-1.2-3.1-2.6-4.6-3.9
		c-2.2-1.7-4.3-3.4-6.5-5.1c-3-2.3-6.1-4.4-9.3-6.4c-0.4-0.3-0.7-0.9-1.3-0.7c-0.3,0-0.8-0.2-0.7,0.5c0,0.3-0.1,0.5,0.4,0.7
		c0.8,0.2,0.8,0.3,0.3,1c-0.2,0.3-0.3,0.5-0.5,0.8c-0.2-0.3-0.5-0.7-0.8-1.2c-0.2,0.7-0.4,1.1-0.5,1.6c-0.4,0-0.7,0-1.1,0
		c-0.5-0.1-1.2,0.6-1.6-0.3c-0.1-0.2-0.4,0.6-0.6,0.1c-0.1-0.3,0-0.6,0-0.9c-0.1-0.8-0.5,0.3-0.7-0.1c-0.1-0.3-0.1-0.6-0.2-1.2
		c-0.2,0.5-0.2,0.7-0.3,0.9c-0.1,0.1-0.4,0.1-0.5,0.1c-0.2-0.3-0.2-0.9-0.5-1c-0.2-0.1-0.7,0.1-1.1,0.2c0,0-0.1-0.1-0.1-0.1
		c-0.9,0.1-1.1-0.8-1.7-1c-0.7-0.2-0.7-0.3-0.8,0.4c-0.1,0.5-0.1,0.4-0.5,0.2c-0.5-0.3-1.1,0.1-1.6-0.5c-0.6-0.6-1.5-0.8-2.3-1.1
		c0,0.2,0,0.4,0,0.5c0.1,0.3,0.2,0.5,0.4,0.8c-0.2-0.1-0.5-0.2-0.7-0.2c-0.6,0.1-1.2,0.3-2,0.6c0.5,0.3,0.8,0.6,1.2,0.9
		c0.1,0.1,0.3,0.2,0.3,0.3c0.3,0.6-0.6,1.1,0,1.7c-0.3,0.1-0.6,0.1-1,0.3c-0.1,0-0.1,0.2-0.1,0.3c-0.3-0.2-0.4,0.6-0.9,0.1
		c-0.2-0.2-0.5,0.3-0.4,0.7c0.2,0.5,0.3,0.9,0.5,1.4c-0.4,1.2-1.4,1.2-2.4,1.1c-0.3,0-0.6-0.4-1-0.3c0.1,0.3-0.2,0.7,0.3,0.7
		c0.8,0.1,0.5,0.7,0.4,0.9c-0.1,0.3-0.5,0.2-0.7,0c-0.3-0.2-0.6,0.4-0.9-0.1c-0.1-0.2-0.8,0-1.1-0.4c-0.1-0.1-0.4-0.1-0.5,0
		c-0.3,0.2-0.6,0.4-0.7,0.7c-0.1,0.2,0.3,0.6,0.5,0.7c1.4,0.2,2.4,1.2,3.9,1.2c0.2,0,0.5,0.2,0.8,0.3c0.7,0.6,1.4,1.2,2,1.8
		c0.4,0.4,0.8,0.3,1.3,0.4c0.1,0.6,0.5,0.8,1.1,0.7c0.1,0.3,0.1,0.6,0.3,0.8c0.8,0.6,1.4,1.3,2,2c0.2,0.2,0.3,0.4,0.5,0.5
		c0.8,0.1,0.9,0.5,0.5,1.1c0.5,0.7,0.3,1.5,0.4,2.2c-0.6-0.1-1.3,0.2-1.9-0.2c-0.6-0.5-1.4,0.2-2-0.5c-0.2-0.2-0.9-0.1-1.2,0.1
		c-0.5,0.4-1,0.1-1.5,0.2c-0.1-0.1-0.3-0.3-0.4-0.3c-0.3-0.1-0.7,0-1,0c-0.1-0.1-0.1-0.1-0.2-0.1c-0.1-0.1-0.1-0.2-0.2-0.3
		c-0.4-0.1-0.7-0.2-1.1-0.4c-0.2,0.2-0.5,0.2-0.7,0c-0.1-0.1-0.2-0.1-0.4,0c-0.1,0.1-0.2,0.2-0.4,0.4c-0.1-0.1-0.2-0.2-0.4-0.4
		l-0.4-0.4v0.4c-0.9,0-1.8-0.2-2.5,0.7c-0.2,0.3-0.7,0.3-0.8,0.6c-0.1,0.3,0.7,0,0.7,0.6c0,0.1,0.3,0.2,0.5,0.3
		c0.4,0.4,0.8,0.6,0.8,1.4c0,0.8,0.8,1.2,1.4,1.8c0.4,0.4,0.2,0.5,0.7,1.4c0.4,0.6-0.1,1.4,0.6,1.8c0.4,0.3,0.4,0.6,0.1,0.9
		c-0.5,0.6-0.2,1.1,0,1.7c0.2,0.7,0.6,1.2,1.3,1.3c0.7,0,1,0.5,1.2,0.9c0.3,0.4-0.2,1.4,0.8,1.5c0.1,0,1.6,1.6,1.7,1.6
		c0.3,0,0.8,0,0.8-0.1c0.1-1,0.6-0.3,0.9-0.2c1.4,0.2,2.6,0.9,3.6,1.8c0.3,0.6,0.8,0.9,1.4,1.2c0.7,0.4,0.8,0.2,0.9-0.4
		c0-0.1,0.2-0.1,0.3-0.1c0.3-0.7,0.6-0.3,0.9-0.1c0.1,0.1,0.4-0.1,0.5-0.2c-0.1-0.2-0.6-0.4,0-0.5c1.4-0.1,2.9,0.2,4.4-0.2
		c0.5,0.5,0.5-0.2,0.4-0.3c-0.7-0.7-0.2-0.9,0.4-1.2c0.2-0.1,0.8,0,0.8-0.5c0-0.7-0.1-1.5,0.2-2.1c0.6-1.3-1.1-0.7-1.1-1.5
		c0-0.4-0.3-0.8-0.5-1.2c-0.1-0.3-0.2-0.6-0.4-0.9c0.1-0.1,0.3-0.2,0.4-0.3c0.1-0.5-0.1-1.1,0.1-1.4c0.4-0.5,0-0.6-0.2-0.8
		c-0.1-0.1-0.1-0.3-0.2-0.4c0.2,0,0.3,0,0.5,0c0.2,0,0.4,0.2,0.5,0.1c0.4-0.2,0.8-0.5,1.1-0.8c0.3-0.2,0.8-0.1,0.7-0.8
		c-0.1-0.4,0-0.8-0.4-1.1c-0.2-0.1-0.4-0.1-0.6-0.3c-0.1-0.1-0.2-0.2-0.3-0.4c0,0,0,0,0,0c0.1-1.2,0.7-1.5,1.8-1.2
		c0.5,0.1,0.9,0.3,1.4,0.4c1.3,0.2,2.3-0.4,2.8-1.8c0,0,0,0,0.1,0c1.8-0.3,2.9,1,4.1,1.9c0.9,0.7,1.5,2,3,1.7c0,0,0,0,0,0
		c0.2,0.2,0.4,0.4,0.6,0.6c0.4,0.1,0.7,0.2,1.1,0.4c0.1,0.1,0.2,0.3,0.4,0.4c0.2,0.2,0.5,0.5,0.7,0.7l1.1,0.7c0.1,0.5,0.6,0.7,1,0.8
		c1.6,0.5,3,1.5,4.5,2.5c0.2,0.2,0.6,0.3,0.7,0.5c0.3,0.9,1.3,0.8,1.8,1.3c0,0,0.4-0.5,0.5,0.1c0,0.1,0.1,0.2,0.1,0.3
		c0.1-0.1,0.2-0.1,0.2-0.2c0-0.3-0.1-0.6-0.1-0.8c0-0.1,0-0.3,0-0.4h0.5c0-0.2,0-0.6-0.1-0.7c-0.6-0.4-1.2-0.9-1.9-1.1
		c-0.8-0.3-1.4-0.8-2-1.3c-0.4-0.4-0.9-0.8-1.4-0.9c-1.2-0.3-2.2-1-3.1-1.8c-0.7-0.7-1.5-1.5-2.2-2.2c-0.5-0.4-1-0.7-1.6-0.8
		c0,0,0,0,0-0.1c-0.7-1.3-2.2-1.8-3-3.1c-0.3-0.4-0.9-0.8,0-1.2c0.1,0,0.2,0,0.2,0c0.2,0.4,0.3,0.9,0.8,1c0,0.1,0,0.1,0,0.2
		c0.7,0.9,1.8,0.9,2.7,1.3c0.2,0.1,0.4,0.2,0.7,0.2c0.4,0.4,1,0.7,1.5,1c0,0.1,0.1,0.3,0.1,0.5c1,2,3,2.4,4.8,3.2
		c0.2,0,0.3-0.1,0.5-0.1c0.2,0.1,0.4,0.1,0.6,0.2c0.1,0,0.1,0,0.2,0c0,0,0,0,0.1,0.1c0.1,0.1,0.2,0.2,0.4,0.3
		c0.3,0.2,0.5,0.6,0.7,0.9c2.1,1.5,3.2,3.9,5,5.6c0.5,0.4,0.9,0.9,1.3,1.4c0.1,0.1,0.3,0.2,0.4,0.3c2.5,1.8,4.5,4.1,6.4,6.4
		c0.6,0.7,1.3,1.5,2.4,0.8C395.2,136.8,394.6,136.1,394,135.3z"/>
</g>
<g>
	<path class="st1" d="M278.1,75.9c0.6,0,1.3,0.1,1.9,0.1c0,0.1,0,0.1,0,0.2c-0.2,0.1-0.4,0.1-0.6,0.2c0.2,0.2,0.3,0.4,0.5,0.6
		c0.1,0.1,0.2,0,0.4,0c0.7-0.1,1.3,0.1,1.9,0.4c0.7,0.4,1.5,0.3,2.2,0.4c0.3,0,0.8,0.1,0.8,0.2c0,0.7,0.5,0.6,0.9,0.6
		c0.7,0,1.5-0.1,2.2,0c0.7,0.1,1.4-0.8,2.1,0c0.3-0.2,0.5-0.5,0.8-0.7c0.3-0.1,0.6-0.1,0.8-0.3c0.5-0.4,0.4-0.5-0.1-0.8
		c-1-0.5-2-0.6-3-1.1c-0.6-0.2-1.3,0-2,0c-0.7,0-1.5,0-2.2,0c-0.6,0-1.1,0.4-1.7,0c-1.1,1-1.9-0.1-2.8-0.4c-0.7-0.1-1.4-0.5-2.1,0.1
		c-0.1,0.1-0.2,0.2-0.1,0.3C277.9,75.6,278,75.9,278.1,75.9z"/>
</g>
<g>
	<path class="st1" d="M333.5,97.9c-0.1-0.1-0.1-0.3-0.2-0.5C333.5,97.6,333.8,97.8,333.5,97.9z M334.4,99.8c0-0.1,0-0.2-0.1-0.4
		C334.5,99.4,334.4,99.6,334.4,99.8z M331.1,100.9c0.1-0.3,0.1-0.2,0.4-0.2c0.6,0,1.2,0.4,1.8,0.2c0.4-0.1,0.9,0.3,1.1-0.4
		c0-0.1,0-0.1,0-0.2c0,0.1,0,0.1,0,0.2c0.7,0.6,1.6,0.3,2.4,0.4c0.3,0,0.8,0.3,0.9-0.3c0-0.2-0.2-0.5-0.5-0.7
		c-0.2-0.2-0.6-0.1-0.7-0.6c0-0.3-0.3-0.5,0-0.8c-0.8-0.9-1.7-1.6-3-1.6c-0.1,0-0.2,0.2-0.3,0.4c-0.2,0-0.5,0-0.7,0
		c-0.1-0.5,0.2-1-0.6-1.2c-0.6-0.1-1-0.7-1.5-1.1c-0.2-0.1-0.5-0.2-0.8-0.3c-0.2-0.2-0.4-0.6-0.7-0.7c-1-0.2-1.8-0.8-2.6-1.3
		c-1.1-0.6-2.2-1.5-3.5-1.7c-0.7-0.1-1.2-0.6-1.3-1.1c-0.2-1.2-0.9-1.4-2-1.5c-0.9-0.1-2.1,0.1-2.6-1.3c-0.3-0.8-0.9-0.7-1.7,0.2
		c0,0.1,0,0.3,0,0.4c0.4,0.7,1,1.3,2,1.9c0.2,0.1,0.3,0.2,0.4,0.4c0.3,0.8,0.9,1,1.7,1.1c0.6,0.1,1.5,0.1,1.4,1.1
		c0,0.1,0.2,0.2,0.3,0.3c0.5,0.1,1,0.4,1.5,0.4c0.7,0,1.2,0.2,1.6,0.7c0.2,0.2,0.5,0.3,0.7,0.4c0.7,0.4,1.5,0.8,1.6,1.8
		c-0.5,0-0.9,0.1-1.4,0.1c0.7,0.5,1.3,1,1.9,1.4c-0.1,0.1-0.2,0.3-0.3,0.4c-0.1,0.1-0.3,0.3-0.4,0.4c0.2,0.1,0.3,0.3,0.5,0.3
		c1.4-0.1,2.5,0.9,3.9,1c-0.7,0.1-1.5,0-1.9,0.8c-0.1,0.2-0.1,0.8,0.1,1.2c0.6,0.2,1.3-0.5,1.9,0C330.8,101.2,331.1,101,331.1,100.9
		z"/>
</g>
<g>
	<path class="st1" d="M336.6,103.3c-0.1-0.1-0.2-0.2-0.3-0.2c-0.2,0-0.3,0.1-0.5,0.1c0.1,0.1,0.2,0.2,0.4,0.3
		C336.4,103.4,336.5,103.3,336.6,103.3z"/>
</g>
<g>
	<path class="st1" d="M351,96.8c0.1,0,0.2-0.1,0.2-0.1c0,0-0.1-0.1-0.1-0.1c-0.1,0-0.2,0.1-0.2,0.1C351,96.7,351,96.8,351,96.8z"/>
</g>
<g>
	<path class="st1" d="M315.6,93.1c-0.4,0-0.8,0-1.6,0c1,0.9,1.6,1.9,2.8,2c0.2,0,0.4,0.2,0.2,0.7c-0.2,0.4,0,1.1,0,1.7
		c1,0.2,1.9,1.1,3.1,0.6c0.7-0.3,1.4-0.7,2.2-0.9c0.9-0.3,1.1-0.6,0.5-1.2c-0.1-0.1-0.3-0.2-0.4-0.4c-0.6-0.7-1.7-1.1-1.6-2.3
		c-0.7-0.7-1.3-1.5-2.3-1.5c-0.2,0-0.7-0.1-0.9,0.1c-0.5,0.4-0.8-0.3-1.2-0.2c-0.7,0.1-0.8,0.1-0.4,0.8
		C316.1,92.9,316.1,93.1,315.6,93.1z"/>
</g>
<g>
	<path class="st1" d="M175.9,400.8c0.5-0.6,1.1,0.5,1.7-0.2c-0.7-0.5-1.4-1.1-2.4-1.8C175.6,399.7,175.7,400.3,175.9,400.8z"/>
</g>
<g>
	<path class="st1" d="M175.9,401.6c-0.1,0.1-0.3,0.1-0.5,0.2c0.1,0.1,0.2,0.2,0.3,0.3c0.3,0.3,0.6,0.4,0.9,0
		c0.1-0.2,0.4-0.2,0.1-0.5C176.3,401.1,176.1,401.5,175.9,401.6z"/>
</g>
<g>
	<path class="st1" d="M210.7,75.9c0-0.5,0.4-0.3,0.6-0.4c0.8-0.2,1.7-0.2,2.3-0.9c-0.1-0.1-0.3-0.2-0.4-0.2c-0.5,0.1-1,0.2-1.5,0.4
		c-0.4,0.1-0.8,0.2-1.2,0.4c-0.1,0-0.2,0.2-0.3,0.4c0,0-0.1,0-0.1,0.1c0,0.1,0,0.2,0.1,0.2C210.4,75.9,210.5,75.9,210.7,75.9z"/>
</g>
<g>
	<path class="st1" d="M193.4,81.8c-0.1,0.1-0.2,0.2-0.4,0.4c0.1,0.2,0.2,0.2,0.4,0c0.6-0.1,1.2-0.2,1.8-0.4c0,0,0,0,0.1-0.1
		c0-0.1,0-0.2-0.1-0.2c-0.2,0-0.5,0-0.7,0C194.1,81.5,193.8,81.6,193.4,81.8z"/>
</g>
<g>
	<path class="st1" d="M184.6,90.6c0.2,0.5,0.4,0.9,1,0.4c0.2-0.1,0.6,0,0.8,0c0-0.1,0-0.2,0-0.4c-0.5,0-1,0-1.5,0
		C184.8,90.6,184.7,90.6,184.6,90.6z"/>
</g>
<g>
	<path class="st1" d="M200.8,80.3c0,0,0.2,0.3,0.3,0.3c0.2-0.1,0.3-0.2,0.4-0.3c0-0.1,0-0.2,0-0.4c-0.1,0-0.3,0-0.3,0
		C201,80,200.8,80.2,200.8,80.3z"/>
</g>
<g>
	<path class="st1" d="M384.3,133.4c0-0.5-0.2-0.6-0.6-0.6c-0.9,0-1.7,0-2.6,0c-0.4,0-0.6,0.1-0.5,0.4c0.1,0.4,0.5,0.5,0.9,0.8
		c1.3,1,2.9,1.4,4.1,2.5c0.1,0.1,0.4,0,0.5,0c0-0.2,0-0.5-0.1-0.6c-0.5-0.4-0.7-1-1-1.6C384.6,134.1,384.3,133.9,384.3,133.4z"/>
</g>
<g>
	<path class="st1" d="M144.9,122.2c0.1-0.3,0.2-0.6,0.3-0.9c0.1,0.1,0.1,0.1,0.2-0.1c1.6-1.2,2.6-2.9,3.9-4.3
		c0.2-0.2,0.2-0.4,0.1-0.6c2-1.3,3.8-3,6.1-3.9c0.1,0,0.1-0.1,0.1-0.2c0.1,0,0.2,0,0.3-0.1c0.2,0.1,0.3,0.1,0.3,0c0.1,0,0.2,0,0.3,0
		c0.9,0.1,1.8,0.5,2.7,0.6c0.5,0.1,1.3,0,1.2,0.8c-0.1,0.6-0.7,1.2-1.4,1.2c-0.8,0-1.5-0.3-1.8,0.7c-0.2,0.9-0.5,1.8,0.4,2.4
		c-0.5,0-0.7,0.4-1,0.7c-0.1,0.1-0.4,0.1-0.5,0c-0.1-0.1-0.2-0.3-0.1-0.5c0.1-0.3,0.3-0.6,0.5-0.9c0.1-0.1,0-0.3,0.1-0.4
		c-0.1,0-0.2,0-0.4,0c-0.6,0-1.1,0.6-1.7,0.4c-0.1,0.1-0.2,0.2-0.3,0.3c0,0,0,0,0,0l0.3-0.3c0.3-0.3,0.6-0.6,0.8-1
		c0.2-0.4,0.7,0.8,0.8-0.2c0-0.3,0.6-0.6,0.8-0.9c0.3-0.4,0.5-0.9,0.6-1.4c0-0.1-0.2-0.5-0.3-0.5c-0.3,0-0.8-0.1-1,0.1
		c-0.8,0.5-1.6,1.1-2.4,1.6c-1.1,0.7-1.9,1.8-3,2.5c-0.6,0.4-0.5,0.8-0.6,1.2c-0.1,0.2-0.3,0.3-0.4,0.5c-0.1,0.2,0.1,0.6-0.4,0.6
		c-0.2,0.2-0.5,0.5-0.7,0.7c-0.3,0.2-0.5,0.5-0.7,0.8c-0.7,0.6-1.5,1.2-2.3,1.7c-0.2,0.1-0.6,0.1-0.9,0.1
		C144.8,122.6,144.9,122.4,144.9,122.2z M155.9,107.2C155.9,107.2,155.9,107.2,155.9,107.2c0.4,0.1,0.7,0.1,0.9-0.2
		c0.1-0.5,0.4-0.6,0.8-0.3c1,0.9,1,1.7,0.1,2.5c-0.6,0.5-1.2,0.9-2,1c0.1-1.3,0.1-1.3-1-2C155.2,108,155.6,107.7,155.9,107.2z
		 M273.4,282.9c0-0.2,0-0.3,0-0.5c-0.2-0.4-0.2-0.9-0.3-1.3c-0.1-0.1-0.2-0.3-0.4-0.4c0-0.5-0.4-0.3-0.7-0.4c0,0,0.1-0.1,0.1-0.1
		c0.1-0.6,0.9-1,0.2-1.7c-0.5,0-0.3-0.5-0.4-0.7c0,0,0.1,0,0.1-0.1c0-0.1,0-0.2-0.1-0.2l-0.4-1.1c-0.6,0-1.1-0.3-1.5-0.8
		c-0.4-0.5-0.8-0.6-1.1,0h-0.4c-0.7-0.3-1.5-0.3-2.2,0h-0.4c0-0.2,0-0.6-0.1-0.6c-0.6-0.2-1.1-0.3-1.7-0.5c-0.2-0.2-0.3-0.6-0.5-0.7
		c-1.4-0.7-2.3-2-3.5-2.9c-1-0.8-2.2-1.4-3.2-2.2c-0.3-0.3-1-0.6-1.6-0.4c0-0.5-0.5-0.3-0.7-0.4c0-0.2-0.1-0.4-0.1-0.7
		c-0.5,0.4-1,0-1.2-0.2c-0.5-0.5-0.6,0.3-0.9,0.1c-0.4-0.3-0.7-0.3-1.1,0c-0.1,0.1-0.2,0.2-0.4,0.4c-0.1-0.2-0.2-0.2-0.4,0
		c-0.6,0.2-1.3-0.6-1.6-0.3c-0.6,0.5-0.8-0.3-1.2-0.1c-0.2-1-1.1-0.7-1.7-0.7c-0.8,0-1.7-0.1-2.5-0.4c-0.4-0.1-0.7-0.4-1.1,0h-2.2
		c-0.6-0.3-1.1,0.1-1.6,0.3c-0.2-0.6-0.9-1-1-1.7v-0.4c-0.1-0.1-0.3-0.2-0.4-0.4c-0.1-0.1-0.2-0.2-0.4-0.3l-0.7-1.5
		c-0.3-0.6-0.8-0.8-1.5-0.8c-0.4,0.2-0.6,0.4-0.4,0.8c0,0,0,0,0,0c-0.1,0.2-0.2,0.3-0.4,0.3c0-0.4,0-0.7-0.2-1
		c-0.1-0.3-0.5,0-0.6-0.2c0-0.1-0.1-0.2-0.2-0.3h-0.4c-0.1-0.2-0.2-0.2-0.4,0c-0.4-0.1-0.7-0.2-1.1-0.4h-0.7
		c-0.4-0.4-1.7-1.1-2.1-1.2c-0.1,0-0.1-0.2-0.1-0.3c-0.2-0.2-0.5-0.2-0.7,0l-1.1-0.7c-0.2,0.1-0.5,0.4-0.6,0.3
		c-0.6-0.5-1.1,0.2-1.7,0.1c-0.4-0.1-0.2,0.4-0.3,0.7c-0.6,0.1-0.3,0.5-0.4,0.8c-0.1,0.5-0.8,0.1-0.8,0.7c0,0.4-0.5,0.4-0.7,0
		c-0.1-0.2-0.3-0.4-0.3-0.6c-0.1-0.2,0.5-0.3,0.1-0.7c-0.1-0.2,0.1-0.7,0.2-1v-0.4c0.1-0.1,0.2-0.2,0.4-0.4c0.1,0,0.2-0.1,0.3-0.1
		c-0.1-0.1-0.2-0.2-0.3-0.2c-0.2-0.2-0.3-0.4-0.5-0.7l-0.2,0.3c-0.3-0.1-0.6-0.1-0.8-0.3c-0.4-0.5-0.9-0.5-1.4-0.5
		c-0.4,0-0.9,0.2-1.2-0.3c-0.1,0.1-0.2,0.2-0.2,0.3c-0.2-0.1-0.4-0.3-0.6-0.4c-0.4-0.2,0.5-0.5,0-0.8c-0.3-0.1-0.5-0.4-0.8-0.7
		c-0.3,0.5-0.6,0.9-0.8,1.3c-0.2,0.5-0.7,0.5-1.1,0.4c0,0.6-0.6,1-0.4,1.7H214c-0.5-0.1-1.1,0.2-1.5-0.2c-0.1-0.1-0.2-0.2-0.3-0.3
		c0.1-0.1,0.2-0.2,0.3-0.2c0.2-0.1,0.5-0.2,0.7-0.2c0.6-0.1,0.7-0.1,0.5-0.6c-0.2-0.7-0.4-1.4,0.6-1.6c-0.3-0.8,1.3-0.4,0.7-1.3
		c1-0.1,1.8-0.4,1.7-1c-0.1-0.6,0.3-1,0.2-1.6c-0.1-0.6,0-1.3-0.4-1.9c-0.1-0.2-0.1-0.4-0.2-0.7c-0.1,0.2-0.2,0.4-0.3,0.6
		c0,0-0.3-0.1-0.3-0.1c0.2-0.8-0.3-0.9-0.9-0.8c-0.2,0-0.4,0-0.5,0c-0.2-0.7-0.5-1.5-0.7-2.2c-0.2-0.5-0.4-0.9-0.5-1.4
		c-0.1-0.4-0.1-0.8,0-1.1c0.1-0.5-0.2-1-0.2-1.4c-0.2-0.2-0.5-0.4-0.7-0.5c0.7-0.8-0.1-0.7-0.5-0.9c-0.3-0.2-0.7-0.5-1-0.7
		c-0.5,0-0.3-0.4-0.4-0.6c-0.1-0.2-0.2-0.3-0.4-0.5c-0.5,0-1.2,0.1-1.4-0.5c-0.1-0.5-0.5-0.5-0.8-0.7c-0.4-0.3-0.8-0.5-1.1-0.8
		c-1.6-1.1-3.3-1.9-5.2-2.4c-0.2-0.1-0.6-0.4-0.7-0.3c-0.6,0.3-1.2,0.2-1.8,0c-0.1,0-0.4,0.2-0.4,0.4c-0.1,0.3-0.2,0.5-0.4,0.1
		c-0.1-0.2-0.1-0.6-0.2-0.8c-0.1,0.2-0.3,0.4-0.4,0.7c-0.3-0.5-0.6,0-0.9,0c-0.4-0.1-0.7,0-0.9,0.3c-0.2-0.7-0.6,0-0.9-0.1
		c-0.4-0.1-0.8-0.2-1.3-0.2c-0.5-0.1-1.1,0.2-1.5-0.3c0,0-0.3,0.1-0.5,0.2c0.2-0.9-0.6-1-1-1.4c-0.6-0.5-0.9-1.2-1.8-1.5
		c-1.2-0.3-1.8-1.3-1.9-2.4c-0.1-1-0.6-0.8-1.2-0.8c0-0.7-0.3-1.2-1-1.6c-0.6-0.3-1.1-0.7-1.5-1.1c-0.4-0.5-0.5,0.3-0.8,0.1
		c0.1-0.6-0.1-0.8-0.7-0.7c-0.1-0.1-0.3-0.2-0.4-0.2c-0.5-0.2-1-0.4-1.4,0.2h-0.4c0-0.1-0.1-0.2-0.1-0.3c-0.1,0.1-0.2,0.2-0.2,0.3
		c-0.2,0.1-0.5,0.3-0.7,0.2c-0.4-0.2-0.5-0.4-0.1-0.8c0.2-0.1,0-0.6,0-0.9c0.8-0.3,0.9-1,1.1-1.6c0-0.1,0-0.5-0.1-0.5
		c-1.1-0.3-1.8-1.2-3-1.2c-0.6,0-1.2,0.2-1.6-0.5c-0.3-0.5-0.8-1-1.1-1.5c0.7-0.8-0.1-0.8-0.5-0.9c-1-0.2-1.9,0.2-2.8,0.7v-1.4
		c-0.5,0.6-0.7,1.2-1.1,1.3c-0.6,0.1-0.9,0.3-1.1,0.9c-0.1,0.4-0.3,0.2-0.4-0.1c0-0.1-0.1-0.2-0.2-0.3c0,0.1-0.1,0.2-0.1,0.3
		c0,0.2,0,0.5,0,0.7c-0.6,0.1-1.2,0.2-1.8,0.4c-0.5-0.4-1.3-0.3-1.4-1c-0.2-1.1-0.6,0.3-0.8-0.1c-0.2-0.3-0.4-0.5-0.6-0.8
		c-0.1-0.2-0.2-0.4-0.3-0.6c-0.2,0.1-0.3,0.5-0.7,0.1c-0.2-0.2-0.5,0.5-0.8,0c0-0.1-0.6,0.2-0.9,0.3c-0.3,0.1-0.7,0-1.1,0.1
		c-0.1,0-0.2,0.4-0.3,0.6c-0.1-0.2-0.2-0.4-0.3-0.6c0,0-0.2,0.1-0.3,0.1c-0.1,0.1-0.1,0.3-0.2,0.4c-0.1-0.2-0.1-0.3-0.2-0.5
		c-0.2-0.4-0.4-0.1-0.5,0.1c-0.3,0.5-0.6,0.4-0.9,0c-0.5-0.8-0.5-0.8,0.4-1.6c-0.2-0.1-0.4-0.2-0.6-0.4c-0.4-0.4-1.2-0.5-1-1.4
		c-0.1,0-0.3,0-0.4,0.1c-0.3,0.1-0.7-0.4-0.9,0.1c-0.1-0.2-0.1-0.3-0.2-0.5c0-0.1-0.2-0.2-0.2-0.2c-0.5,0.6-1.2,0.4-1.7,0.3
		c-0.8-0.1-0.5,1-1.3,0.9c-0.3,0-0.5,0.2-0.9,0c-0.5-0.3-0.1,0.6-0.5,0.5c-0.1,0-0.1-0.2-0.2-0.3c-0.1-0.2-0.3-0.5-0.3-0.3
		c0.1,0.7-0.9,0.4-0.8,0.9c-0.2,0.4-0.7-1.1-0.8,0.1c0,0.1-0.5,0.3-0.5,0.2c-0.3-0.3-0.6-0.7-0.9-1.1v-0.4c0.2-0.3,0.7-0.6,0.7-1
		c0.1-0.6,0.4-0.5,0.8-0.5c0.2,0,0.5-0.1,0.7-0.1c-0.1-0.2-0.1-0.3-0.2-0.5c0.2-0.1,0.4-0.2,0.6-0.3c-0.1-0.2-0.3-0.4-0.2-0.5
		c0.6-0.8-0.9-0.2-0.5-0.9c0,0-0.1-0.2-0.1-0.3c-0.4,0.6-1,0.7-1.6,0.9c0.3,1-0.6,0.9-1.1,1.1c0.1,1-1,0.3-1.1,0.8
		c-0.1,0.8-0.8,0.7-1.2,1.1c-0.3,0.4-1.1,0.3-1.7,0.4c-0.1,0-0.2-0.4-0.3-0.6c-0.1,0.2-0.1,0.6-0.3,0.6c-0.8,0.2-1.1,0.6-1,1.4
		c0,0-0.1,0.1-0.1,0.1c-0.4-0.3-0.6-0.3-0.6,0.3c-0.2-0.1-0.5-0.1-0.7-0.2c-0.4-0.3-0.7-0.4-0.8,0.3c0,0.2-0.2,0.3-0.2,0.4
		c-0.3,0.1-0.6-0.2-0.7,0.3c-0.1,0.4-0.5,0.8-0.5,1.2c0,0.4,0,0.7-0.2,1.1c-0.1,0.4-0.2,0.7-0.4,1.1c-0.1,0.3-0.1,0.7-0.3,0.8
		c-0.6,0.3-0.8,0.9-1.2,1.3c-0.3,0.3-0.7,0.4-1,0.7c-0.2,0.2-0.1,0.7-0.6,0.7c-0.1,0-0.3,0.7-0.4,1.1c-0.2,0.8-0.7,0.8-1.3,0.7v-0.4
		c-0.1-0.3,0.2-0.7-0.4-0.7c-0.1-0.3,0.2-0.7-0.4-0.7c-0.7-0.4-1.3-0.9-1.8-1.5c0-0.4,0-0.4-0.5-0.4c-0.1,0-0.2-0.1-0.2-0.1
		c0-1-0.7-0.4-1.1-0.6h-0.4c0-0.1-0.1-0.2-0.1-0.3c-0.1,0.1-0.2,0.2-0.2,0.3h-0.4c-0.1-0.1-0.2-0.2-0.2-0.3c0,0.1-0.1,0.2-0.1,0.3
		c0,0.1,0,0.2,0,0.4c-0.7,0.2-1.2,0.8-2,0.8c-0.1,0-0.2,0.5-0.2,0.7c-0.4,0.1-1.2,0.2-1.2,0.4c-0.2,0.8-0.9-0.5-1,0.3
		c-1.6-0.1-2.2-0.6-2.6-1.8c0,0,0-0.1-0.1-0.1c0-0.2,1-0.5-0.1-0.7c-0.8-0.1-0.4-1.4-1.3-1.7c-0.3-0.1-0.2-0.4-0.4-0.5v-0.4
		c0-0.3,0.6-0.6,0-0.9c-0.4-0.2-0.4-0.5-0.4-0.9v-2.2c0.1,0,0.3-0.1,0.3-0.1c0-1.4,0.5-2.6,0.8-3.9v-0.4c0.1-0.1,0.3-0.3,0.4-0.4
		c0.1-0.3,0-0.7,0-1c0.1-0.3,0.2-0.5,0.3-0.8c0.4-1.1,1-2.1,1.2-3.3c0.1-0.6,0-1.1,0.3-1.7c0.4-0.6,0-1.1-0.9-1.6
		c-0.2-0.1-0.4-0.2-0.6-0.4c-0.1,0.1-0.2,0.2-0.4,0.2c0-0.1,0.1-0.2,0.4-0.2c-0.3-1.1-0.7-1.5-1.4-1.5c-1,0-2-0.3-3,0.3
		c-0.3,0.2-0.8,0.2-1.2,0.2c-0.4,0-0.7-0.1-1.1-0.2c-0.6-0.3-1.1-0.2-1.4,0.4c-0.5-0.2-0.9-0.4-1.4-0.5c0.3-0.4,0.6-0.8,0.8-1.2
		c0.3-0.5,0.7-0.9,0.6-1.5c0.4-0.7,0.7-1.4,0.7-2c0.1-0.9,0.3-1.8,1-2.5c0.1-0.1,0.1-0.4,0.1-0.7c0.1,0,0.2-0.1,0.3-0.1
		c-0.1-0.1-0.2-0.2-0.3-0.2v-0.4c0-0.3-0.2-0.8,0.4-0.7c0.5,0,0.9-0.2,1-0.7c0-0.2,0-0.5,0.1-0.7c0.6-0.6,0.7-0.8,0.6-1.7
		c0-0.2,0-0.4,0.1-0.5c1-0.3,1-1.1,1-1.9c0.3-0.4,0.6-0.9,1-1.1c1.2-0.4,0.9-1.6,1.5-2.4c0-0.1-0.2-0.5-0.3-0.5c-0.9,0-1.9,0-2.8,0
		c-0.8,0.9-2.1,0.8-3.1,1.3c-0.3,0.2-0.5,0.3-0.7,0.6c-0.4,0.5-0.3,1.4-1,1.7c0,0.2,0.1,0.4,0,0.5c-0.6,1.3-0.9,2.8-2,3.9
		c-0.5,0.5-0.9,1.1-0.9,1.8c-0.4,0.1-0.7,0.3-1.1,0.4c-0.4,0.1-0.7,0-0.9-0.3c-0.3,0.2-0.5,0.6-0.8,0.7c-0.5,0.2-1,0.3-1.5,0.4
		c-0.5,0.1-0.7,0.3-0.8,0.7h-0.2c0,0,0,0,0-0.1c-1.3-1.2-2.3-2.6-2.6-4.4c0,0,0,0,0,0c0.3-0.4,0.4-0.9,0.3-1.4
		c0-1.5,0.2-2.9,0.3-4.4c0.2-1.7,0.6-3.3,1.4-4.8c0.5-1.1,1-2.2,1.3-3.3c0.2-0.5,0.4-1.1,0.7-1.5c0.6-0.9,0.7-2,1.5-2.9
		c1.1-0.8,1.5-2,1.5-3.3c0.3-0.5,0.9-1,0.9-1.5c0.1-0.7,0.6-1.2,0.9-1.8l0.4-1.1c0.5,0,0.4-0.4,0.4-0.6c0.1,0,0.1,0.1,0.2,0.1
		c1.3-0.3,2.3-1.1,3.3-1.9c1-0.7,2.1-1.5,2.2-2.9c0,0,0-0.1,0-0.1c0.8,0.1,1.4-0.5,2.1-0.7c0.5,0.1,1.1-0.1,1.6,0.3
		c0.5,0.3,0.5-0.1,0.6-0.5c0,0,0.1,0,0.1,0c0.2-0.1,0.4-0.3,0.6,0c0.2,0.2,0.5,0.3,0.7,0.4c0,0,0,0,0,0c0,0.1,0,0.3,0,0.4
		c0,0.1,0.2,0.3,0.3,0.4c0.1-0.1,0.3-0.2,0.4-0.3c0.1,0.1,0.3,0.1,0.4,0.1c0.3-0.1,0.6,0,0.9-0.2c0.3-0.2,0.6-0.4,0.6-0.6
		c0.2-2.1,1.8-2.1,3.3-2.3c1-0.1,1.9-0.2,2.9-0.4c0.8-0.2,1.6-0.1,2.1,0.7c0.6,1,1.5,1,2.4,0.5c0.6-0.4,1.2-0.4,1.8-0.7
		c0,0.3-0.2,0.6-0.3,0.9c-0.1,0.2,0.4,0.6,0.5,1c0.1,0.4,0.1,0.9,0.1,1.4v0.4l-0.4,0.7c-0.2,0.2-0.4,0.5-0.6,0.8
		c-0.2,0.3-0.4,0.6-0.5,0.9c-0.1,0.3,0,0.7-0.1,0.8c-0.3,0.3-0.4,0.6,0,0.9c0.3,0.2-0.5,0.5,0,0.8c0.3,0.1-0.7,0.5,0.1,0.6v0.4
		c-0.1,0-0.2,0.1-0.3,0.1c0.1,0.1,0.2,0.2,0.3,0.2c0,0.4,0.1,0.9,0,1.3c-0.2,0.4,0.7,0.6,0.1,1c0.2,0.2,0.5,0.4,0.6,0.7
		c0.1,0.4-0.1,0.8,0.3,1.2c0.4,0.3,0.8,0.4,1.1,0.1c0.4-0.3,0.9-0.6,0.6-1.3c0.8,0,0.6-0.8,1-1.2c0.6-1.2,1-2.3,1.2-3.7
		c0.1-0.8-0.1-1.6,0.3-2.3c0.1-0.2,0.4-0.9-0.3-1v-0.7c-0.3,0-0.3-0.1-0.3-0.2c0.1,0.1,0.2,0.1,0.3,0.2c0.3-0.1,0.7,0.2,0.7-0.3
		c0-0.9,0-1.7,0-2.6c0-0.9,0.3-1.8,0.6-2.7c0.5-1.5,1.4-2.7,2.3-4c0.5-0.7,1.3-1.2,1.8-2c0.1-0.1,0.3-0.2,0.4-0.3
		c1.6-0.2,2.5-1.7,3.9-2.2c0.2-0.1,0.4-0.2,0.4-0.4c0-0.7,0.7-0.7,1-1c0.5-0.5,1.1-0.8,1.7-1.2v0.2c0.3-0.1,0.7-0.1,1-0.3
		c0.1-0.1,0.1-0.4,0.1-0.6h0.4c0.8-0.5,1.6-1.2,2.5-1.4c0.6-0.1,0.8-0.3,0.9-0.8c0.3-0.9,1-1.4,1.9-1.5c0.2,0,0.4-0.2,0.5-0.3
		c0.3-0.9,0.8-1.8,1.3-2.6c0.3-0.4,0.3-0.7,0-1.1c-0.4-0.5-0.2-0.9,0.2-1.3c0.2-0.1,0.3-0.4,0.4-0.6c0.2-0.5,0.6-0.8,0.6-1.5
		c-0.1-0.6,1-0.4,0.9-1.1c0.4,0.3,0.6,0.6,0.5,1.1c0,0.3,0.2,0.7,0.3,1c0.1-0.2,0.2-0.5,0.4-0.6c1-0.5,1.1-1.7,1.9-2.3
		c0.4-0.3-0.5-0.4,0-0.8c0.4-0.3,0.7-0.3,1,0.1c0,0,0.1,0,0.1-0.1c0.1-0.8,1-0.7,1.5-1.2c0.5-0.5,1.3-0.8,1.2-1.7
		c0-0.1,0-0.1-0.1-0.2c0.1,0.1,0.2,0.2,0.3,0.3c1.5-1.1,2.8-2.5,4.9-2.7c1.1-0.1,2.1-0.5,3.2-0.9c2-0.7,2.1-0.9,1.8-3.1
		c0,0-0.1,0-0.1,0c0.6,0.1,0.8-0.2,0.7-0.7c0.6,0.1,0.8-0.1,0.7-0.7h0.4c0.2-0.1,0.4-0.3,0.5-0.3c0.6,0,0.6-0.4,0.6-0.8
		c0.1-0.1,0.1-0.1,0.2-0.2c0,0,0.1,0,0.1,0.1c0.5,0.2,1,0.3,1.4,0c2.2-1.2,4.8-1.6,7-2.7c2.1-1,4.4-1.4,6.7-1.9
		c-1,0.6-2.3,0.4-2.9,1.7c0,0.1,0,0.1,0,0.2c-0.4,0.2-0.7,0.4-1.1,0.6c-0.6,0.3-0.6,0.6-0.1,0.9c0.4,0.3,0.7,0.3,1.1,0
		c0.4-0.3,0.8-0.5,1.1-0.7c0.2,0,0.3,0,0.5,0c1.3-0.4,2.7-0.8,4.1-1c1.2-0.2,2.5-0.5,3.5-1.4c0-0.1,0.1-0.1,0.1-0.2
		c0.8-0.7,0.8-0.7-0.1-1.1c-0.5-0.2-0.4,0.1-0.4,0.3c-0.1,0-0.2,0-0.3,0c0,0-0.1,0-0.1,0c0-0.1,0-0.3-0.1-0.4
		c-0.2,0.1-0.3,0.2-0.5,0.4c0,0-0.1,0.1-0.1,0.1c-0.1,0-0.2-0.1-0.3-0.2c-1.7-0.4-3.4-0.9-4-2.7c0.1,0,0.1,0,0.2-0.1
		c0.6-0.3,1.3-0.5,1.3-1.3c0-0.3-0.2-0.5-0.3-0.5c-0.2,0-0.4,0-0.6,0c-0.2,0-0.4,0-0.5-0.1c-0.2-0.1-0.3-0.2-0.4-0.4c0,0,0,0,0,0
		c0,0,0,0,0,0c-0.1,0-0.1-0.1-0.1-0.1c0,0-0.1,0-0.1,0c0,0,0-0.1,0-0.1c0,0.1,0.1,0.1,0.1,0.2c0.1,0,0.1,0.1,0.1,0.1
		c0.3,0.2,0.6,0.4,0.9,0.4c0.2,0,0.4,0,0.6,0c0.5-0.1,1.1-0.3,1.6-0.5c0.8-0.3,1.5-0.9,1.3-1.8c-0.2-0.9-1.1-1-1.9-1
		c-1.5,0-2.9,0.5-4.2,1c-0.1,0.1-0.1,0.2-0.2,0.3c-0.2,0.1-0.5,0.1-0.7,0.2c-0.7,0.3-1.4,0.6-2.1,0.8c0.4-0.4,1-0.5,1.5-0.8
		c1-0.5,2.2-0.5,3-1.2c1.5-1.2,3.2-1.5,5-1.4c0.9,0,1.9,0.1,2.8,0c-0.1,0-0.1,0.1-0.2,0.1c-0.5,0.1-0.9,0.2-1.5,0.3
		c0.5,0.5,0.9,1.2,1.3,1.2c0.6-0.1,1,0.3,1.4,0.3c0.4,0,0.9-0.2,1.4-0.3c0,0,0.1-0.4,0-0.5c-0.7-0.4-1.7-0.4-2.2-1.1
		c0.2-0.1,0.5-0.1,0.7-0.2c0-0.1,0.1-0.2,0.1-0.2h0.3c0,0,0,0,0,0c0.1,0.1,0.1,0.2,0.2,0.3c0.5,0.2,1,0.2,1.5,0
		c0.2-0.1,0.4-0.2,0.6-0.3c0.7-0.1,1.4-0.2,2-0.3c0,0,0.1,0,0.1,0.1c0.2,0.3,0.5,0.4,0.8,0.2c0.1-0.1,0.3-0.2,0.5-0.3
		c0.3,0,0.6,0,0.9-0.2c0.1,0,0.2,0,0.3,0c0.5,0,0.9-0.3,1.2-0.7c0-0.1,0.1-0.1,0.1-0.2c0.1,0,0.3,0,0.3-0.1c0.4-0.4,0.8-0.7,1.4-0.6
		c0.2,0,0.5-0.2,0.7-0.3c0.6-0.4,1.3-0.4,2-0.4h1.1c-0.1,0.2-0.2,0.4-0.4,0.6c-0.4,0.4-0.9,0.7-1.4,1c-0.5,0.4-0.7,1-1.4,1.1
		c-0.1,0-0.1,0.4-0.1,0.6c-0.2,0-0.4-0.1-0.5,0c-0.3,0.4-0.6,0.8-0.9,1.2c-0.4,0.5-1.2,0.1-1.4,0.8c-0.1,0.2-0.6,0.3-0.2,0.7
		c0.1,0.1-0.1,0.4-0.2,0.7c-0.6,0-1.2,0-1.9,0.3c-0.5,0.3-0.4,0.6-0.3,0.9c0,0.4,0.5,0.2,0.7,0.3c0.5-0.1,1-0.3,1.5-0.4
		c0.5-0.1,1.1,0,1.6,0h2.4c0.4-0.1,0.9,0.3,1.1-0.4h0.7c0.1,0.6,0.7,0.4,0.8,0.3c0.7-0.7,1.7,0,2.4-0.6c0.3,0.6,0.5,0,0.8-0.1
		c0.7-0.1,0.4-0.5,0.1-0.8c0,0,0.1-0.2,0.1-0.2c0.7,0.3,0.3-0.9,0.9-0.7c0.2-0.4,0.5-0.7,0.7-1.1c-0.5-0.7-1.3-0.5-1.7-0.3
		c-1.1,0.8-1.9-0.2-2.9-0.1c-0.1,0-0.1-0.1-0.2-0.2c0.1,0,0.2-0.1,0.3-0.1c0.1-0.1,0.3-0.3,0.4-0.4c-0.2-0.1-0.4-0.2-0.6-0.3
		c-0.2,0-0.4,0-0.5,0c0-0.2,0-0.5,0-0.5c0.8-0.2,1.1-1.1,2-1.3c0.3-0.1,0.1-0.3-0.2-0.3c-0.1,0-0.2-0.1-0.3-0.1
		c0.1-0.1,0.1-0.2,0.2-0.2c0.4-0.1,0.9,0.3,1.2-0.4h-1.9c0.6-0.4,1.1-0.7,1.6-1.1c0.7-0.7,0.7-0.7,0.7-1.8c0.3,0,0.5-0.2,0.2-0.4
		c-0.5-0.3-1.1-0.5-1.6-0.7c-0.2-0.4-0.5-0.7-0.7-1.1c0.1,0,0.2-0.1,0.3-0.1c0-0.1-0.1-0.2-0.1-0.2c-0.3,0-0.6,0-0.9,0h-1.1v-0.7
		c-0.2-0.2-0.5-0.2-0.7,0c-0.4-0.1-0.7-0.2-1.1-0.4c-0.1-0.1-0.2-0.2-0.4-0.4c-0.1-0.3-0.2-0.6-0.4-0.9c0-0.1-0.2-0.1-0.2-0.1
		c-0.4-0.1-0.4-0.1-0.5-0.3c0,0,0,0,0,0c0.2-0.1,0.4-0.2,0.6-0.3c0.1-0.1,0.2-0.2,0.3-0.4c0.2-0.3,0.2-0.7,0.5-1
		c0.1-0.1,0.2-0.3,0.2-0.4c0-0.2,0-0.3,0-0.4c-0.1-0.3-0.4-0.4-0.7-0.5c-0.5-0.7-0.4-1.6-1-2.2c0,0-0.1,0-0.1-0.1
		c0-0.1,0.1-0.1,0.1-0.2c0,0-0.1-0.1-0.1-0.1c-0.1,0.1-0.1,0.1-0.2,0.2c0,0-0.1-0.1-0.1-0.1c-0.2-0.1-0.5-0.1-0.7,0
		c-0.2,0-0.3,0.1-0.5,0.2c-0.5,0.2-0.9,0.6-1.3,0.9c-0.2,0.2-0.5,0.3-0.7,0.5c-0.2,0.1-0.5,0.2-0.7,0.4c-0.3,0.1-0.7,0.2-1,0.3
		c-0.1,0-0.3,0.1-0.4,0.1c-0.1,0-0.1,0.1-0.2,0.1c-0.1,0.1-0.3,0.1-0.4,0.2c-0.1,0-0.3,0.1-0.4,0.1c-0.8,0.3-1.5-0.7-2.4-0.3
		c-0.1,0.1-0.2,0.1-0.3,0.2c0,0,0,0,0,0c0,0,0,0-0.1,0c0,0,0,0,0,0c0,0,0.1,0,0.1,0c0.1,0,0.1-0.1,0.2-0.1c0,0,0.1,0,0.1,0
		c0.8-0.5,1.4-1.2,2.1-1.8c0.2-0.2,0.5-0.4,0.7-0.7c0-0.2,0-0.3-0.1-0.5c-0.1-0.1-0.3-0.2-0.4-0.2c-0.7-0.1-1.3-0.2-1.6-0.9
		c-0.3-0.3-0.7-0.5-1.1-0.6c-0.2,0-0.3,0-0.5,0c-0.6,0.1-1.1,0.3-1.7,0.2c-0.2,0-0.3,0-0.5,0c-1.9-0.5-3.4,0.3-4.7,1.6
		c-0.3,0.2-0.5,0.4-0.8,0.6c-0.1,0.1-0.2,0.2-0.3,0.4c-0.5,0.8-1.2,1.2-2,1.5c-0.8,0.6-1.9,0.7-2.5,1.6c-0.2,1.7-0.7,3.1-2.5,3.6
		c-0.8,0.8-1.9,1.1-3,1.4c-0.9,0.6-1.8,0.9-2.8,1.3c-1.7,0.6-2.5,1.8-2.9,3.4c-0.1,0-0.1,0-0.2,0c-1.5,1.4-2.7,3.1-5,3.1
		c-0.2-0.7-0.1-1.4,0.2-2.1c0,0,0,0,0,0c0.4,0.2,0.8-0.1,1.2,0c0.1,0,0.3-0.3,0.3-0.3c-0.1-0.2-0.2-0.4-0.4-0.4c-0.1,0-0.2,0-0.3,0
		c0.8-0.7,1.4-1.5,2.1-2.2c0.5-0.5,0.8-1.1-0.2-1.5c-0.3-0.1-0.5-0.1-0.8-0.1c-0.2,0-0.5,0-0.7,0c-0.2,0-0.5,0-0.7-0.1
		c-1-0.2-1.1-1.1-1.5-1.8c-0.2-0.1-0.4-0.2-0.7-0.3c-0.2-0.1-0.5,0.2-0.6-0.1c0.2-0.2,0.4-0.5,0.6-0.7c0.1-0.1,0.2-0.2,0.3-0.4
		c0.1-0.1,0.2-0.3,0.2-0.4c0.2-0.3,0.5-0.5,0.8-0.7c0.2-0.1,0.4-0.2,0.5-0.4c0.2-0.1,0.4-0.2,0.6-0.3c0.1-0.1,0.3-0.1,0.4-0.2
		c0.3-0.1,0.6-0.3,0.8-0.4c1.6-0.7,3.1-1.4,4.5-2.2c0.2-0.1,0.4-0.2,0.6-0.3c0.1-0.1,0.3-0.1,0.4-0.2c0.2-0.1,0.4-0.2,0.6-0.2
		c0.4-0.1,0.9-0.3,1.3-0.5c0.5-0.3,1-0.5,1.6-0.5c1.5-0.4,2.9-1.3,4.4-1.6c0.7-0.2,1.5-0.4,2.1-0.9c0,0,0,0,0,0c0,0,0,0,0.1-0.1
		c0.1-0.1,0.1-0.1,0.2-0.1c0,0,0,0,0,0c0,0,0,0,0,0c0,0,0,0,0,0c-0.1,0.1-0.2,0.1-0.3,0.2c-0.4,0.3-0.5,0.6-0.3,1
		c0.2,0.2,0.5,0.2,0.7,0.2c0.4-0.1,0.8-0.2,1.2-0.3c0.6-0.2,1.2-0.4,1.8-0.7c0.6-0.3,1.3,0.1,1.9,0c0.3,0,0.5-0.1,0.7-0.2
		c0.2-0.1,0.4-0.3,0.5-0.6c0.2-0.4,0.2-0.8,0-1.2c-0.2-1.3,0.9-0.6,1.4-0.8c0.5,0,1-0.1,1.4-0.5c0.1-0.1,0.2-0.3,0.3-0.4
		c0.7-0.1,1.4-0.2,2.2-0.3c0.1-0.1,0.3-0.2,0.4-0.4c0.5,0.1,0.9-0.1,1.1-0.6c0.5,0.1,1-0.1,1.5-0.2c0.3-0.1,0.6-0.2,0.9-0.3
		c0.4-0.2,0.8-0.4,1.2-0.7c0.4-0.3,0.8-0.3,1.2-0.4c0.2,0,0.4-0.1,0.6-0.2c0.1-0.1,0.2-0.2,0.2-0.4c0.1-0.1,0.2-0.1,0.4-0.2
		c0.4,0,0.8,0,1.2,0c0.1,0,0.2-0.2,0.4-0.3c0.5,0.3,0.8,1.1,1.4,1.1c0,0.5-0.5,0.9-0.2,1.5c0,0,0,0,0,0c0,0,0,0,0,0c0,0,0,0,0,0
		c0,0,0,0,0,0c0,0,0,0,0,0c0,0,0,0,0,0c-0.1-0.1-0.2-0.3-0.3-0.3c-1.2-0.2-2.2,0.1-3,1H211c-0.1,0.1-0.3,0.2-0.4,0.4
		c-0.1,0.1-0.2,0.2-0.4,0.4c-0.1,0.1-0.2,0.2-0.4,0.4c-0.9,0.1-1.7,0.2-2.6,0.4c-0.5-0.3-1-0.3-1.5,0c-0.7,0.2-1.5,0.5-2.2,0.7
		c-0.2,0.2-0.2,0.5,0,0.7c1.2-0.2,2.5-0.1,3.7-0.7c0.6-0.3,0.6-0.3,1.1,0c0.5,0.5-0.1,1.5,0.7,1.8c0.8-0.3,1.4,0.4,2.2,0.4
		c0.9,0.2,1.7,0.8,2.7,0.6c0.2-0.1,0.3-0.2,0.4-0.4c-0.2-1,0.1-1.5,1.2-1.1c0.6,0.2,1.3,0.4,1.9-0.2c0.1-0.3-0.2-0.6,0.3-0.7
		c0.1,0,0.1,0,0.2,0c0.3,0,0.7,0.1,0.6-0.4c-0.1-0.4,0.3-1-0.3-1c-0.7-0.1-0.2-0.8-0.7-0.9c0.1-0.5,0.6-0.1,0.9-0.3
		c0.3-0.1,0.6-0.2,0.7-0.4c0.6-0.7,1.2-0.2,1.2,0.3c0.1,0.8,0.8,0.5,1.2,0.8c0.3,0.3,0.8-0.1,1-0.5c0.1-0.1,0.3-0.2,0.4-0.2
		c1.4,0,2.4-1,3.6-1.4c-0.5-0.1-1.1-0.1-1.6-0.1c-0.2,0-0.5-0.1-0.5-0.1c-0.1-1-0.9-0.5-1.4-0.6c-0.2,0-0.4,0-0.5,0h-0.3
		c0.7-0.7,2.3-0.3,2.2-1.8c-0.1-0.1-0.3-0.2-0.4-0.4c-0.8-0.2-1.7-0.3-2.5-0.5c0.9-1.1,1-1.1,1.9-1.4c0.4-0.1,0.7-0.5,1-0.7
		c-2.2,0.1-4.4,0.6-6.6,1.1c-0.2,0.2-0.3,0.3-0.5,0.5c0,0.1-0.1,0.1-0.1,0.2h-2c-0.5,0-0.9,0-1.4,0c-0.2,0-0.3,0.2-0.4,0.4h-0.4
		c-0.4,0.1-0.9-0.3-1.1,0.4c-0.3,0-0.7,0-1,0c-0.2,0-0.3,0.2-0.4,0.3c-1-0.1-2,0.4-2.9,0.6c0,0,0,0.1,0,0.2c0.2,0.1,0.6-0.1,0.8,0
		c-1.3,0.2-2.1,1.1-2.8,2.1c0,0.1,0,0.1,0,0.1c-0.8,0.1-1.6,0.2-2.4,0.3c0,0,0-0.1,0-0.1c-0.1-0.4,0.4-0.6,0.2-1h-1.5
		c-0.3,0.3-0.8,0-1.1,0.4c-0.4,0.3-0.8,0.4-1.3,0.6c-0.2-0.1-0.4,0-0.6-0.2c-1.4,0.5-2.9,0.9-4.3,1.5c-0.9,0.4-1.9,0.4-2.7,1.1
		c-0.4,0.1-0.9-0.3-1.1,0.4c-0.3,0-0.8,0-1,0.1c-2.1,1.1-4.4,1.8-6.6,2.7c-2.3,1-4.6,1.9-6.8,3c-1.8,0.8-3.7,1.7-5.5,2.7
		c-1.3,0.7-2.8,1.1-3.9,2.2c-1.5,0.4-2.9,1.2-4,2.2c-0.3,0.1-0.6,0.1-0.8,0.3c-1.6,0.9-3.1,1.8-4.7,2.7c-1.1,0.6-1.9,1.5-3.2,1.9
		c-0.2,0.1-0.3,0.4-0.5,0.7c-0.6-0.2-0.8,0.4-1.2,0.6c-4.4,2.8-8.6,5.8-12.7,9c-2.1,1.7-4.2,3.4-6.3,5c-1.5,1.2-2.9,2.6-4.3,3.9
		c-0.3,0.3-0.6,0.7-0.9,0.9c-1.4,0.7-2.3,1.9-3.2,3c-0.1,0.1-0.2,0.2-0.4,0.4c-0.1,0.1-0.2,0.2-0.4,0.4c-2.9,2.8-5.8,5.7-8.7,8.5
		c-0.1,0.1-0.1,0.4-0.1,0.7c-0.1,0.1-0.3,0.2-0.4,0.4l-1.1,1.1c-0.1,0.1-0.2,0.3-0.4,0.4c-0.9,0.2-1,1.1-1.5,1.7
		c-2,2-3.7,4.3-5.4,6.5c-1.4,1.8-2.9,3.5-4.1,5.4c-0.7,0.9-1.6,1.8-2.1,2.8c-0.3,0.5-1.1,0.8-0.8,1.6c-0.6,0.5-1.3,1.6-1.5,2.2
		c-0.6,0.1-0.8,0.5-0.7,1.1c-0.1,0.1-0.2,0.3-0.4,0.4c-0.2,0.2-0.1,0.5-0.4,0.7c-0.1,0.1-0.2,0.3-0.4,0.4v1.1
		c-0.1,0.2-0.4,0.4-0.4,0.4c0.5,0.5,0.2,0.8,0,1.4c-0.4,0.9-1.1,1.7-1.4,2.7c-0.4,1-0.8,2.1-1.5,2.9v1.1c-0.1,0.1-0.3,0.2-0.4,0.3
		c-0.3,1-0.4,2.1-1,3.1c-0.1,0.2-0.2,0.6-0.1,0.8c0.1,1-0.2,1.9-0.7,2.8c-0.6,0.4-0.7,0.9-0.7,1.6c0,0.6,0.2,1.3,0,1.8
		c-0.4,0.6-0.2,1.3-0.3,1.9c-0.1,0.7-0.2,1.4-0.4,2c0,0.2,0.1,0.5,0,0.7c-0.5,1.2-0.4,2.5-0.7,3.7c-0.1,0-0.3,0.1-0.3,0.1
		c-0.2,0.8-0.2,1.6-0.5,2.4c-0.3,0.8-0.7,1.7-1.1,2.5c-0.4,0.7-0.7,1.4-0.8,2.2c-0.1,1.2,0.2,2.3,0.4,3.5v0.4c0,0.5,0.1,0.9,0.4,1.4
		c0.3,0.4,0.9-0.1,1,0.4c-0.1,1,0.2,1.8,0.6,2.6c0.3,0.5,0.9,0.9,0.9,1.6c0,0.2,0.4,0.3,0.7,0.5c0.2,0.2,0.5,0.5,0.7,0.7
		c0.7,0.2,0.2,0.7,0.4,1.1c0.2,0.2,0.4,0.4,0.7,0.4c1.7,0.8,2.8-0.3,3.9-1.4c0.6-0.5,1.2-0.2,1.8,0.1c0,0,0,0,0.1,0
		c0.1,0.2,0.2,0.4,0.3,0.5c0.2,0.5,0.3,0.9,0.5,1.4c0.2,0.4,0.6,0.8,0.3,1.4c0.5,1,1,2,1.5,3c0.1,0.2,0.5,0.4,0.7,0.4
		c0.3,0.1,0.7-0.1,1.1,0c0.2,0.1,0.4,0.4,0.5,0.6c0.1-0.1,0.1-0.2,0.2-0.2c0.1,0.2,0.1,0.4,0.2,0.5c0.2,0.4,0.5,0.7,0.9,0.8
		c0.1,0,0.3,0,0.4,0c0.2,0.3,0.4,0.5,0.5,0.8h0.4c0.1-0.1,0.2-0.1,0.4,0c0.1,0.2,0.2,0.2,0.4,0c0-0.1,0.1-0.3,0.1-0.3
		c0.2,0,0.3,0,0.4,0c0,0,0.1,0,0.1,0c0.6,0.2,0.4,0.8,0.6,1.2c0.5,1.4,0.9,3,2.2,4c0,0,0.1,0,0.1,0c0.2,0.2,0.4,0.5,0.6,0.7
		c-0.7,0.4,0.3,0.8,0.1,1.2c0,0,0.2,0.3,0.3,0.4v0.7c-0.1,0.1-0.2,0.3-0.4,0.4v0.4c-0.7,0.5-1,1-0.4,1.8c0.1,0.2,0.1,0.5,0.4,0.2
		c0.1-0.1,0-0.4,0-0.5c0.1,0,0.3,0,0.3,0c0.5-0.3,0.9-0.4,1.1,0.3c0.2,0.4,0.1,1,0.7,1.2c0.1,0.8,0.3,1,1.1,1.1
		c0.1,0.1,0.2,0.2,0.4,0.4v0.4c0,0.4,0,0.8,0,1.2c0,0.7,0.2,0.7,0.6,0.3c0.1-0.1,0.3,0,0.5,0c0.1,1.4,0.5,1.8,1.8,1.8
		c1.2,0,1.4,0.2,1.9,1.4c0.3,0.6,0.9,1,1.3,1.5c0.4-0.6,1.1,0.6,1.4-0.3c0.8-0.1,0.8-0.5,0.3-0.9c-0.6-0.4,0-0.9-0.4-1.4
		c-0.2-0.2,0.4-0.6,0.8-0.7c0.7-0.3,1.1-0.9,1.1-1.7c0,0,0.2-0.1,0.3-0.1c0.1,0,0.2-0.1,0.3-0.1c-0.1-0.1-0.2-0.2-0.3-0.2v-0.4
		c0.5,0,1,0.1,1.3-0.4c0.5,0.4,1.4,0.8,1.6,1.3c0.4,0.9,0.3,1.9,0.4,2.9c-0.7,0.3,0,0.7,0,1c0,0.2,0.5,0.2,0.6,0.4
		c0.1,0.2-0.3,0.5-0.2,0.7c0,0.5,0.5,0.2,0.7,0.3c0.1,0.1,0.2,0.2,0.4,0.4c0.1,0.5,0.1,1.1,0.4,1.4c0.4,0.4-0.2,0.9,0.3,1.2
		c-0.3,0.4-0.2,0.7,0.2,0.9c0.2,0.2,0.2,0.3,0.1,0.5c-0.2,0.3-0.1,0.7-0.1,1c0,0.8,0.2,1.5-0.4,2.2c-0.1,0-0.2,0.1-0.3,0.1
		c0.1,0.1,0.2,0.2,0.3,0.2v0.4c-0.1,0-0.2,0.1-0.3,0.1c0.1,0.1,0.2,0.2,0.3,0.2l0.4,0.4c-0.1,0.1-0.2,0.2-0.4,0.4
		c-0.5,0-0.3,0.5-0.4,0.7c0.1,0.9,0.2,1.7,0.4,2.6c0,1-0.2,2-1.1,2.6c-0.3,0.3,0,0.8-0.4,1.1h-1.1c-0.1,0.3,0.1,0.8-0.3,0.7
		c-0.9-0.2-0.8,0.7-1.2,1c0.6,0.4-0.3,0.7-0.1,1.1c-1,0.2-0.7,0.9-0.6,1.5c0,0.2,0.2,0.2,0.1,0.5c-0.6,1-1.9,0.9-2.6,1.8
		c-0.1,0.1-0.3,0-0.5,0c-0.2,0.2-0.3,0.5-0.3,0.8c0,0.1,0.1,0.3,0.2,0.4c0.2,0.2-0.1,0.3-0.1,0.5c0,0.2,0,0.3,0.1,0.5
		c-0.1,0.1-0.3,0.2-0.3,0.3v1.4c0,0,0,0,0,0c0,0,0,0.1-0.1,0.2c0,0.1,0,0.2,0.1,0.3c-0.1-0.1-0.2-0.2-0.2-0.2
		c-1.2,0.2-0.7,1.5-1.2,2.1v2.6c0,0.1,0,0.3,0,0.4c0.4,1.2,0.4,1.2-0.4,1.8c-0.2,0.4,0.2,0.5,0.4,0.7c0.2,0,0.5,0.1,0.7,0.1
		c0.2,0.1,1.3,0.4,1.6,0.4c0.1,0,0.2,0,0.3,0c0,0.4,0.4,0.8-0.3,1c-0.2,0.2-0.2,0.5-0.1,0.8c-0.1,0-0.2,0.1-0.2,0.2
		c-0.1,0.1-0.1,0.2-0.2,0.3c-0.1,0.1-0.2,0.2-0.2,0.2l-0.4,1.1L120,269c-0.4,0.1-0.8,0.4-0.7,0.9c0.1,0.5-0.1,0.9-0.4,1.3
		c-0.3,0.5-0.7,1.1,0,1.7c-0.7,0.4,0.4,0.9,0,1.3c-0.5,0.5-0.2,0.8,0.2,1.1c0.3,0.3,0.6,0.6,0.9,0.9c-0.3,0.5-0.7,1-1,1.5
		c0.6,0.2,1.1,0.6,1.8,0.5c0.1,0.3-0.2,0.7,0.4,0.7c0,0.3-0.2,0.7,0.4,0.8c0.2,0,0.5,0.2,0.7,0.4c0.5,0.9,1,1.7,1.5,2.6l0.4,1.1
		c0.5,1,1.6,1.7,1.5,3c0,0.1,0.2,0.3,0.3,0.4c0.5,0.5,0.8,1.1,0.8,1.8c0,0.4,0.5,0.2,0.7,0.3c-0.3,1.7,0.8,2.9,1.3,4.4
		c0.1,0.4,0.5,0.4,0.9,0.4v0.4c0,0.6,0.3,1.1,0.7,1.5c0.2,0.8,0.6,1.5,0.8,1.8c0.4,0.6,0.6,1.2,0.9,1.9c0.2,0.5,0.3,0.9,0.5,1.4
		c0.2,0.2,0.5,0.4,0.7,0.6c0.2,0.2,0.4,0.5,0.6,0.7c0,0,0,0,0,0c-0.1,0.2,0,0.3,0.1,0.5v0.4c0.5,0.7,0.9,1.5,1.3,2.3
		c-0.1,0.1-0.2,0.1-0.2,0.2c0,0.7,0.3,1.2,0.8,1.7c0.5,0.4,0.6,1,0.8,1.5c0.3,0.5,1,0.8,1.5,1.2c0.1,0.1,0.1,0.3,0.3,0.4
		c0.4,0.4,0.7,0.7,1.1,1.1c0.5,0.6,1.6,1.3,2.2,1.5c0.2,0,0.6,0.1,0.6,0.1c0,0.8,0.8,0.9,1.3,1.2c1,0.6,2,1.1,3,1.5
		c0.4,0.2,0.9,0.3,1.3,0.4c0.6,1,1.7,1.3,2.6,1.8c0.1,0.3-0.2,0.7,0.4,0.7c-0.1,0.6,0.1,0.8,0.7,0.7c0,0.2,0,0.6,0.1,0.7
		c0.7,0.4,1.3,0.9,2.1,1.2c0.5,0.2,0.3,1.1,1.1,0.9c-0.1,0.1-0.3,0.2-0.3,0.4c-0.1,0.5,0.4,0.7,0.6,1c0.2,0.3-0.8,0.8,0.1,1
		c0.2,0,0.4-0.1,0.6-0.1c0,0,0,0,0,0.1h-0.5c0.7,0.8,0.7,0.8,0.7,1.5c-0.1,0-0.1,0-0.2,0c-0.1,0-0.1,0.1-0.1,0.1
		c0.5,0.8,0.8,1.6,0.7,2.5c0,0.4,0.4,0.2,0.7,0.3c-0.1,1.2,0.3,2.3,0.6,3.4c0.2,0.8,0.2,1.5-0.2,2.1c0.8,0.6,0.4,1.7,1.1,2.4
		c0,0-0.1,0.1-0.2,0.2c-0.7,0.7-0.7,1.1-0.1,1.6c0.2,0.2,0.5,0.4,0.7,0.6c-0.1,0-0.2,0-0.4,0c-0.1,0-0.2,0.1-0.3,0.1
		c0.1,0.1,0.2,0.2,0.3,0.2c0.1,0,0.2,0,0.4,0v0.4c-0.1,0-0.2,0-0.4,0c-0.1,0-0.2,0.1-0.3,0.1c0.1,0.1,0.2,0.2,0.3,0.2
		c0.1,0,0.2,0,0.4,0c-0.1,0.1-0.2,0.3-0.3,0.4c-0.4,0.2-0.4,0.2-0.1,0.4c0.1,0.1,0.2,0.2,0.4,0.2c-0.6,0.5,0.2,0.8,0.1,1.4
		c-0.1,0.4,0.6,1,0.6,1.5c0.1,0.9,0.5,1.7,0.6,2.5c0.1,0.3-0.3,0.8,0.1,1.3c-0.5,0.6,0.3,0.8,0.3,1.3c0,0.1-0.1,0.2-0.2,0.3
		c-0.2,0.1-0.5,0-0.2,0.4c0.5,0.5-0.2,1.2,0.5,1.6c-0.9,0.8,0.4,0.5,0.4,0.8c-0.6,0.3-0.7,0.4-0.6,0.5c0.3,0.5,0.5,1.5,0.2,1.9
		c-0.6,0.8-0.3,1.3,0.4,1.8c0.1,0.1,0.1,0.2,0.2,0.3c-0.1,0.3,0,0.6,0.1,0.8c0.6,0,0.3,0.5,0.4,0.7c0.7,0.1,0.3,0.6,0.3,1
		c0,0.4-0.3,0.8-0.3,1.2c0,0.5,0.2,1,0.4,1.4c0.1,0.1,0.4,0.1,0.6,0.1c0.5,0,0.3,0.5,0.4,0.7c-0.1,0-0.1,0-0.2,0
		c-0.1,0-0.1,0.1-0.1,0.1c0.2,0.3,0.4,0.7,0.5,1c0.6,1.3,0.7,2.1,0.5,2.9c0.9,2.5,0.9,5.1,1.1,7.7c0.2,2.3-0.3,4.7,0.3,7
		c0.3,0.4,0.5,1,0.8,1.4c1.1,1.5,1.9,3.1,2.3,5c0.3,1.3,0.7,3.8,3.3,2.8c0,0.3,0.4,0.3,0.5,0.5c0.6,0.7,1.3,1.3,1.4,2.4
		c0.1,0.8,0.7,1.8,1.3,1.8c1.3-0.2,1.7,0.7,2,1.5c0.4,1.2,1.2,1.6,2.2,1.6c0.4,1.4-0.4,3,0.4,4.3c0.8,0,0.6-1.6,1.6-0.7
		c0.5,0.4,1.1,0.7,0.8,1.4c-0.3,0.7-0.9,1.1-1.6,1.4c0,0-0.1,0-0.1,0c-0.1-0.1-0.2-0.2-0.4-0.2c-0.6-0.1-0.8-0.5-0.7-1.2
		c0.1-0.3,0.1-0.6-0.3-0.6c-0.2,0-0.4,0.1-0.5,0c-0.8-0.8-0.6,0.1-0.5,0.3c0.2,0.5,0.4,1,0.3,1.5v0.4c0.1,0.1,0.2,0.1,0.4,0
		c0.2,0,0.4,0,0.7,0c0.7,3.1,3.8,6.1,6.4,8.4c0,0.1,0,0.2-0.1,0.2c-0.6,0.5-0.1,0.7,0.2,0.9c0.3,0.2,0.6,0.3,0.9,0.4
		c0.4,0.1,0.5,0.4,0.3,0.6c-0.5,0.4-0.1,0.6,0.2,0.8c0.1,0,0.4-0.1,0.5-0.3c0.3-0.4,0.6-0.5,0.7-0.4c0,0,0,0,0,0
		c0.1,0,0.1,0.1,0.1,0.2c0.2,1.1,1.1,1.5,1.9,2c0.1-0.1,0.2-0.1,0.4,0c0.4-0.1,0.8,1.1,1.1-0.1c0.1,0.1,0.3,0.1,0.4,0.2
		c0.1,0.5,0.7,0.3,1,0.6c0,0,0.1,0,0.2,0c0.2,0.1,0.4,0.2,0.7,0.3c-0.2,0.8,0.7,0.3,1,0.6c0.2,0.2,0.5,0.4,0.8,0.6
		c0.3,0.2,0.7,0.2,1.1,0.4h0.7c0.2,0.1,0.4,0.2,0.6,0.4c0.3-0.7,0.6,0,0.9,0c0.2-0.2,0.5-0.2,0.7,0h0.7c0.4-0.3,0-0.8,0.4-1.1
		c0.1,0,0.1,0,0.2,0s0.1-0.1,0.1-0.1c-0.3-0.5-0.5-0.6-1.5-1c-0.3-0.1-0.6-0.5-0.9-0.6c-0.4-0.2-0.4-0.1-0.4-0.8
		c0-0.2-0.1-0.3-0.1-0.5c-0.5,0.7-0.8,1.6-1.4,1.9c0-0.1,0.1-0.2,0.1-0.3c-1.7-0.1-3-0.8-4-2.4c-0.7-1.1-0.3-2.2,0.4-2.9
		c-0.2-0.3-0.4-0.7-0.5-1.2c-0.3-1.9,1.1-3.1,1.5-4.7c0.1-0.1,0.2-0.3,0.2-0.4c0.4-2-1.3-2.4-2.5-3c-0.9-0.5-1.7-0.9-2.2-1.8
		c-0.4-0.8-0.4-1.5,0.7-1.4c1.2,0,1.3-0.9,1.4-1.7c0.1-0.7-0.1-1.3-0.1-2c-0.2-2.6-1.7-4.5-3.8-6c0.3-0.5,0.5-1,0.8-1.5
		c0.3,0.3,0.6,0.5,0.8,0.8c0.2-0.4,0.2-0.5,0.5-0.2c0.4,0.4,2.3,1,2.9,0.7c0.2-0.1,1,0.7,0.8-0.3c0.1,0,0.3,0,0.4,0
		c0.1,0,0.2,0.1,0.2,0c0.1-0.1,0.1-0.2,0.1-0.3c-0.1-0.1-0.2-0.3-0.4-0.3c-0.6-0.2-0.8-0.5-0.4-1.1c0.1-0.1-0.1-0.4,0-0.5
		c0.7-0.7,0.3-1.1-0.3-1.3c-0.8-0.2,0-0.5-0.1-0.6c-0.7-0.8-0.2-1,0.5-0.8c0.5,0.1,0.7-0.6,1.2-0.1c0.2,0.2,1.7,0.5,2.1,0.4
		c0.4,0,0.7-0.7,1.2-0.1c0.2,0.2,1-0.3,1.4-0.2c0.4,0.1,0.6-0.6,1.1-0.2c0.2,0.1,0.3,0,0.5-0.9c0.4,0,0.2,0.9,0.5,0.5
		c0.4-0.5,0.8,0.7,0.8-0.2c0.3,0,0.9,0,1-0.1c0.3-0.4,0.4-0.9,1-1c0.3-0.1,0.4-0.9,0.7-1.3c0.1-0.1,0.4-0.1,0.6-0.1
		c-0.2-0.4-0.7-0.8,0-1.4c0.5-0.4,0.3-1-0.2-1.2c-0.2-0.1-0.4,0.1-0.5,0c-0.2-0.2-0.3-0.5-0.5-0.6c-0.1-0.1-0.4,0-0.6,0.1l-0.3-1.9
		c0.1-0.1,0.5-0.4,0.1-0.4c-0.8,0-0.4-0.9-0.9-1.1c-0.1-0.1-0.2-0.2-0.4-0.3c-0.6-0.2-1.1-0.4-1.7-0.7c-0.5-0.3-1.1-0.6-0.6-1.4
		c0.3,0.2,0.5,0.5,0.8,0.7c0.1,0.1,0.3,0.1,0.4,0.2c1.2,0.2,2.4,0.5,3.6,0.8c0.1,0.1,0.3,0.2,0.4,0.3c0.3,0.2,0.5-0.5,0.8,0
		c0,0,0.5-0.2,0.7-0.2c0.3,0.1,0.5,0.3,0.8,0c0.1-0.1,0.7,0.3,0.8,0.2c0.7-0.5,1.1-0.2,1.5,0.3c0.1,0.1,0.2,0,0.4,0
		c-0.1-1,1.1-0.2,1.2-0.9c1-0.3,1-1.5,1.9-1.9c0.3-0.1,0.4-0.6,0.5-0.9c0.3-0.6,0.5-1.1,0.8-1.7c-0.9-0.4-0.7-1-0.4-1.5
		c0,0,0.1,0,0.1,0.1c0.3,0.1,0.5-0.2,0.6-0.4c0.3,0,0.7,0,1-0.1c0.1,0-0.4-0.5,0-0.7c-0.2-0.3-0.4-0.6-0.6-0.8
		c0.5-0.5,0.9-0.9,1.3-1.3c0.1-0.1,0.1-0.4,0.1-0.7c0.2,0,0.6,0,0.7-0.1c0.3-0.5,0.8-1.1,0.8-1.7c0-1,0.6-0.9,1-0.7
		c0.5,0.2,1.3-0.3,1.4,0.7c0.1-0.3,0.2-0.5,0.4-0.8c0.2-0.2,0.4-0.4,0.5-0.7c0.1-0.3,0-0.8,0.2-1c0.2-0.2,0.9-0.1,0.2-0.7
		c0.5-0.6,1-1.4,1.6-1.9c0.9-0.8,1.4-1.4,1.9-2.7c0.2-0.6,0.6-1.1,0.5-1.8c-0.9-2-0.3-4.1-0.8-6.1c-0.1-0.1-0.1-0.3-0.2-0.4
		c0.3-0.5,0.7-0.9,1.4-0.9c0,0,0.2-0.3,0.2-0.3c-0.3-0.2-0.2-0.4,0-0.5c0.6,0.3,1.1,0.1,1.5-0.5c0.2-0.4,0.4-0.9,0.9-1
		c1.6-0.5,3-1.8,4.8-1.9c0.2-0.1,0.3-0.1,0.5-0.2c0.1-0.1,0.3-0.2,0.4-0.3c0,0,0,0,0,0c1.4-0.2,2.4-0.9,3.1-2.2
		c0.4-0.7,0.5-1.6,1.4-2.2c0.1,0.8-0.5,1.8,0.8,1.9c0-0.1,0-0.1,0-0.2c0-0.1,0.1-0.1,0.1-0.1c0.4-0.1,0.4,0.8,1.1,0.5
		c0.2-0.1,0.8-0.1,1,0c0.8,0.5,0.1-0.8,0.7-0.5c0.4,0.2,0.7,0.4,1.1,0.5c0.1,0,0.4-0.3,0.4-0.2c0.9,0.6,1.4-0.7,2.2-0.6
		c0.3-1.3,1.6-1.5,2.5-1.9c0.8-0.4,0.8-0.9,0.8-1.5c0.8-1.3,1.6-2.5,2.5-3.8c1.3-1.9,2.8-3.9,2.5-6.5c-0.1-0.5,0.2-1.1,0.5-1.6
		c1.9-3.2,2.3-6.8,2.1-10.4c-0.1-2.9-0.2-5.8,0.7-8.7c0,0,0-0.1,0-0.1c0.2-0.1,0.4-0.2,0.5-0.3c0.1-0.1,0.3-0.2,0.4-0.2
		c0.2,0,0.5,0.1,0.6,0.1c0.3-0.1,0.6-0.3,0.9-0.5c0.2-0.2,0.2-0.5,0.4-0.7c0.2-0.2,0.4-0.4,0.5-0.7c0-0.1-0.6-0.4,0.1-0.5
		c0.5,0,0.3-0.5,0.4-0.7l0.4-0.4c-0.1-0.5,0.2-0.8,0.5-1c0.3-0.3,0.8-0.6,0.6-1.2c0.1,0,0.3-0.1,0.3-0.1c0.1-0.6,0.2-1,0.8-1.2
		c0.2,0,0.2-0.3,0.4-0.5h0.9c0-0.1,0-0.3,0-0.4c0-0.1-0.1-0.2-0.1-0.3c1.1,0,1.5-0.9,2.1-1.6c1.5-1.7,2.3-2.3,3.4-4.8
		c0.1,0,0.2,0,0.2,0c0.5-1.4,1.1-2.8,0.9-4.4C273.7,283.8,273.5,283.4,273.4,282.9z"/>
</g>
<g>
	<path class="st1" d="M371.3,125.8c-0.3-1-1.2-1-1.7-1.6c0,0-0.3,0-0.4,0.1c-0.4,0.3-0.5,0.8-0.2,1.1c1,1.2,2,2.4,2.7,3.8
		c0.1,0.2,0.6,0.3,0.9,0.3c0.1,0,0.3-0.4,0.3-0.5c0-0.8,0-1.2-0.5-1.7C372,126.9,371.5,126.4,371.3,125.8z"/>
</g>
<g>
	<path class="st1" d="M382.8,127.6c0.1,0,0.3-0.1,0.6-0.1c-0.3-0.1-0.4-0.2-0.5-0.2c-0.1,0-0.2,0-0.3,0
		C382.6,127.4,382.6,127.6,382.8,127.6z"/>
</g>
<g>
	<path class="st1" d="M95.7,258.9c0.2,0.2,0.3,0.3,0.5,0.5c0.2-0.3,0.4-0.6,0.6-0.9c-0.1-0.1-0.2-0.2-0.3-0.2
		C96.3,258.6,96,258.8,95.7,258.9z"/>
</g>
<g>
	<path class="st1" d="M138.3,185.4c0.4,0.3,0.8-0.1,1.1-0.3c0.4-0.2,0.8-0.3,1.1,0c0.1,0.1,0.4,0.2,0.5,0.2c0.4-0.4,0.9-0.3,1.3-0.4
		c0.4-0.1,0.8-0.4,1.1-0.3c0.5,0.1,0.8-0.7,1.2-0.1c0.1-0.2,0.2-0.3,0.2-0.5c0-0.2-0.2-0.3-0.2-0.5c-0.1,0.1-0.3,0.5-0.5,0.1
		c-0.5-0.8-0.5-0.8-1.7-1.2c-0.3-0.1-0.5-0.3-0.7-0.4c-0.4-0.3-0.8-0.5-1.1-0.8c-0.3-0.2-0.6-0.5-0.8-0.4c-0.5,0.3-0.5-0.3-0.8-0.4
		c-0.1-0.1-0.2-0.3-0.3-0.4c-0.1,0.2-0.1,0.4-0.2,0.7c-0.6-0.7-0.7-1.9-1.9-1.9c-0.1,0-0.2-0.1-0.3-0.2c-0.2-0.6-0.6-0.9-1.3-0.9
		c-0.3,0-0.5-1.5-0.9,0c-0.2-0.1-0.4-0.1-0.5-0.3c-0.4-0.9-0.7-1.7-1.9-1.4c-0.2,0-0.4-0.2-0.6-0.3c-0.2-0.1-0.4-0.2-0.6-0.2
		c-0.2,0-0.6,0.1-0.6,0.1c-0.3-0.5-0.5,0.3-0.8,0c-0.2-0.2-0.7-0.2-1-0.2c-0.4,0-0.9-0.2-0.8,0.6c0,0-0.2,0.1-0.2,0.1
		c-0.5-0.6-0.9-0.1-1.1,0.2c-0.3,0.5-0.7-0.4-0.8,0c0,0.5-0.4,0.4-0.6,0.6c-0.3,0.3-0.5,0.2-0.7-0.1c-0.2,0.2-0.4,0.7-0.6,0.7
		c-0.6,0-0.2,1-0.9,0.8c0.1,0.2,0.2,0.5,0.2,0.7c0,0.3,0,0.4,0.4,0.2c1.1-0.4,2.3-0.7,3.1-1.7c0.5-0.6,1.2-0.3,1.9-0.3
		c0.1,0,0.1,0.3,0.1,0.5c-0.1,0.8,0,0.9,0.7,0.9c0.3,0,0.4-0.7,0.9-0.2c0.2,0.2,0.7,0.1,1,0.1c0.1,0,0.3,0.2,0.3,0.3
		c-0.3,0.9,0.8,0.7,1,1.2l1.5,0.2c0.3-0.1,0.7-0.1,1-0.2c0.1,0.3,0.8,0.3,0.3,0.8c-0.2,0.2,0.3,0.4,0,0.8c-0.5,0.6,0.2,0.6,0.6,0.6
		c0.6,0.8,0.6,0.8,2.2,1.1c0,0.2,0,0.5,0,0.7c-0.1,0.1-0.3,0.2-0.4,0.3c0,0-0.7,0.5-0.7,0.5c0,0.3-0.1,0.5-0.4,0.2
		c-0.1-0.1-0.2,0-0.4,0c0.1,0.2,0.1,0.4,0.2,0.5c0.4,0.1,0.9,0.1,1.3,0.3C137.6,185.7,137.8,185,138.3,185.4z"/>
</g>
<g>
	<path class="st1" d="M153.1,190.1c0.8,0.2,1.7,0.6,2.3-0.4c0.1,0.1,0.2,0.3,0.3,0.2c0.3,0,0.8-0.2,0.9-0.2c0.2,0.7,0.7-0.5,1,0.1
		c0,0,0.6-0.2,0.8-0.2c1,0.2,1.4,0,1.8-0.8c0-0.1,0.1-0.3,0-0.4c-0.5-0.4-1-0.7-1.5-1.1c-0.8,0.9-0.3-0.6-0.6-0.4
		c-0.6,0.5-0.9,0-0.9-0.4c-0.1-0.4-0.4-0.3-0.6-0.5c-0.3-0.2-0.6-0.4-0.5-0.9c0-0.1,0-0.1-0.4,0c-0.1,0-0.3,0-0.4-0.1
		c-0.2-0.3-0.4-0.6-0.5-0.8c-0.3,0.1-0.1,1.3-0.8,0.3c-0.2-0.4-0.4-0.2-0.7,0c-0.3,0.3-0.9,0.2-1.3-0.1c-0.1-0.1-0.2-0.1-0.2-0.1
		c0,0.2,0,0.4-0.1,0.5c-0.2,0.2-0.4,0.3-0.6,0.4c-0.1-0.6-0.9,0.5-0.8-0.4c0-0.1-0.2-0.2-0.2-0.2c-0.8,0.9-1.5-0.3-2.3-0.1
		c-0.1,0-0.2-0.2-0.3-0.2c-0.1,0.2-0.2,0.5-0.4,0.7c-0.3,0.3,0,0.3,0.2,0.4c0.7,0.5,0.6,0.5,0.9,1.5c0.1,0.4-0.1,1.2,0.6,1.4
		c0,0.2,0,0.5,0,0.7c0,0.4,0.2,0.7,0.4,1c-0.3-0.2-0.4-0.5-0.4-1l-1.7,0.4c-0.3,0.2-0.6-0.7-1,0c-0.2-0.5-0.7,0.1-1.1-0.2
		c-0.3-0.2-0.8-0.1-1.2-0.2c-0.2,0-0.4-0.7-0.5,0c0,0.3-0.5,0.3-0.2,0.9c0.3,0.5,0.8,0.6,1.1,1c0.2-0.6,0.9,0.2,1.2-0.4
		c0.1-0.4,0.4-0.3,0.6,0c0.1,0.1,0.4,0.3,0.5,0.3c0.6-0.5,1.3-0.2,1.9-0.2c0.8-0.1,1.7-0.3,2,1c0,0.1,0.4,0.1,0.6,0.3
		c0.3,0.2,0.3,0.2,0.4-0.1c0.1-0.3,0.2-0.5,0.4-0.8c-0.2,0-0.4,0-0.6,0c0.2,0,0.4,0,0.6,0c0.1-0.1,0.2-0.3,0.4-0.4
		C152.1,190.2,152.6,190,153.1,190.1z"/>
</g>
<g>
	<path class="st1" d="M136,190.4c-0.4-0.4-0.9-0.5-1.5-0.4c-0.8,0.1-1.5,0.2-1.6,0.6c-0.1,0.5,0.4,0.7,0.6,1
		c0.1,0.1,0.2,0.2,0.3,0.3c0.6,0.6,1.3,0.9,2.1,0.4c0.2-0.1,0.5-0.2,0.8-0.3c0.6-0.2,1-0.5,1-0.9c-0.1-0.1-0.2-0.3-0.2-0.3
		C136.8,191.2,136.7,189.7,136,190.4z"/>
</g>
<g>
	<path class="st1" d="M166.8,189.3c-0.3-0.6-0.7,0.1-1.1-0.2c-0.2-0.2-0.8,0.1-1.3,0.1c0,0-1,0.8-1,0.9c0,0-0.1,0.1-0.1,0.1
		c-0.3,0.4-0.2,0.8,0.3,0.9c0.3,0.1,0.5,0.2,0.8,0.2c0.3,0,0.6-0.2,0.9-0.2c1.5,0,1.6,0,2.1-0.7c0.1-0.1,0.2-0.3,0.2-0.3
		C167.7,189.8,166.9,189.5,166.8,189.3z"/>
</g>
<g>
	<path class="st1" d="M177.9,217.9c-0.2-0.1-0.5-0.2-0.5-0.2c-0.2,0.2-0.3,0.5-0.4,0.7c-0.1,0.1-0.2,0.2-0.4,0.3
		c0.2,0.1,0.5,0.4,0.5,0.3c0.3-0.3,0.5-0.4,0.5,0.1c0,0.1,0.2,0.1,0.3,0.2c0.1-0.2,0.2-0.4,0.3-0.6c0.1,0.1,0.3,0.4,0.4,0.3
		c0.2-0.1,0.4-0.3,0.5-0.5c0.3-0.2,0.5-0.5,0.8-0.7c-0.3-0.3-0.7-0.7-0.7-0.7c0.4-0.5-0.1-0.8-0.3-1.1c-0.3-0.3-0.8-0.1-0.9,0.3
		c0,0.3,0,0.6,0.2,0.8C178.5,217.6,178,217.7,177.9,217.9z"/>
</g>
<g>
	<path class="st1" d="M205.2,108.2c0.9,0.1,0.7-0.8,1-1.2c0.2-0.2-0.1-0.3-0.4-0.1c-0.1,0.1-0.3-0.1-0.5-0.2
		c-0.1,0.2-0.2,0.6-0.3,0.6c-0.7,0-0.6,1.1-1.5,0.9c-0.1,0-0.4,0.2-0.5,0.4c-0.1,0.1-0.2,0.4-0.1,0.5s0.3,0.2,0.5,0.2
		c0.3,0,0.6,0.1,0.6-0.4c0-0.1,0.1-0.2,0.1-0.2c0.3,0.1,0.4,0.2,0.6,0.3c0.1,0,0.2-0.2,0.3-0.2C204.8,108.4,204.7,108.1,205.2,108.2
		z"/>
</g>
<g>
	<path class="st1" d="M199.8,108.2c-0.3,0-0.6-0.3-0.8-0.4c-0.3,0.1-0.6,0.1-0.8,0.2c-0.2,0.1-0.3,0.2-0.4,0.4
		c0.1,0.1,0.3,0.2,0.4,0.2c0.3,0,0.5,0.6,0.8,0.1c0-0.1,0.4,0,0.6,0.2c0.3,0.2,1.3,0.2,1.5-0.1c0.2-0.4-0.1-0.9-0.5-0.8
		C200.3,107.9,200.1,108.2,199.8,108.2z"/>
</g>
<g>
	<path class="st1" d="M151.7,213.2c0.6-0.1,0.6-0.1,0.5-0.3c-0.2-0.4-0.5-0.8-0.7-1.2c-0.1,0-0.2,0-0.3,0c0,0.3,0,0.6,0,0.9
		C151.1,213.1,151.3,213.3,151.7,213.2z"/>
</g>
<g>
	<path class="st1" d="M180.7,236.3C180.7,236.3,180.7,236.3,180.7,236.3C180.6,236.3,180.6,236.3,180.7,236.3
		C180.6,236.3,180.6,236.3,180.7,236.3z"/>
</g>
<g class="st2">
	<path class="st3" d="M315,75.5c59.5,19.2,108.2,67.4,125.3,132.4c26.6,101.3-34,205-135.3,231.6c-47.5,12.5-95.5,5.8-135.8-15.3"/>
</g>
</svg>
