<?xml version="1.0" encoding="utf-8"?>
<!-- Generator: Adobe Illustrator 19.1.0, SVG Export Plug-In . SVG Version: 6.00 Build 0)  -->
<svg version="1.1" id="Layer_1" xmlns="http://www.w3.org/2000/svg" xmlns:xlink="http://www.w3.org/1999/xlink" x="0px" y="0px"
	 width="512px" height="512px" viewBox="0 0 512 512" style="enable-background:new 0 0 512 512;" xml:space="preserve">
<style type="text/css">
	.st0{fill:#01293F;}
	.st1{fill:#003764;}
	.st2{fill:#00C4B4;}
	.st3{fill:#04A091;}
	.st4{opacity:0.25;clip-path:url(#SVGID_2_);}
</style>
<g>
	<g>
		<g>
			<polygon class="st0" points="305.9,175.5 171.1,236.6 280.1,476.9 338.8,427.3 414.5,416.1 			"/>
		</g>
		<g>
			<polygon class="st1" points="206.1,177.9 340.9,239.1 231.9,479.6 173.2,429.7 97.1,418.5 			"/>
		</g>
		<g>
			<path class="st2" d="M430.6,207.3c0,12.9-18.5,23.7-21.3,36c-2.8,12.6,9.4,30.4,4.2,41.9c-5.6,11.5-26.9,12.9-34.6,22.7
				s-4.2,31.4-14,39.5c-9.8,8-29.3-0.3-40.5,5.2c-11.2,5.6-17.1,26.5-29.3,29.3c-11.9,2.8-26.2-13.3-38.8-13.3s-26.9,16.1-38.8,13.3
				c-12.2-2.8-18.2-23.7-29.3-29.3c-11.2-5.6-31.1,2.8-40.5-5.2c-9.8-8-6.3-29.7-14-39.5s-29-11.2-34.6-22.7
				c-5.2-11.2,7-29.3,4.2-41.9c-3.5-12.2-22-23-22-36s18.5-23.7,21.3-36c2.8-12.6-9.4-30.4-4.2-41.9c5.6-11.5,26.9-12.9,34.6-22.7
				c7.7-9.8,4.2-31.4,14-39.5c9.8-8,29.3,0.3,40.5-5.2c11.2-5.6,17.1-26.5,29.3-29.3c11.9-2.8,26.2,13.3,38.8,13.3
				s26.9-16.1,38.8-13.3c12.2,2.8,18.2,23.7,29.3,29.3s31.1-2.8,40.5,5.2c9.8,8,6.3,29.7,14,39.5c7.7,9.8,29,11.2,34.6,22.7
				c5.2,11.2-7,29.3-4.2,41.9C412.1,183.5,430.6,194.4,430.6,207.3z"/>
		</g>
		<g>
			<path class="st3" d="M256,238.7c-17.5,0-31.4-14-31.4-31.4s14-31.4,31.4-31.4s31.4,14,31.4,31.4S273.5,238.7,256,238.7z
				 M256,137.4c-38.8,0-69.8,31.4-69.8,69.8s31.4,69.8,69.8,69.8c38.8,0,69.8-31.4,69.8-69.8S294.8,137.4,256,137.4z"/>
		</g>
		<g>
			<path class="st3" d="M256,312c-58,0-104.8-46.8-104.8-104.8S198,102.5,256,102.5s104.8,46.8,104.8,104.8S314,312,256,312z
				 M256,81.6c-69.5,0-125.7,56.2-125.7,125.7S186.5,333,256,333s125.7-56.2,125.7-125.7S325.5,81.6,256,81.6z"/>
		</g>
	</g>
	<g>
		<defs>
			<path id="SVGID_1_" d="M413.5,285.1c5.2-11.5-7-29.3-4.2-41.9c2.8-12.2,21.3-23,21.3-36c0-12.9-18.5-23.7-22-36
				c-2.8-12.6,9.4-30.7,4.2-41.9c-5.6-11.5-26.9-12.9-34.6-22.7c-7.7-9.8-4.2-31.4-14-39.5c-9.4-8-29.3,0.3-40.5-5.2
				c-11.2-5.6-17.1-26.5-29.3-29.3c-11.9-2.8-26.2,13.3-38.8,13.3c-12.6,0-26.9-16.1-38.8-13.3c-12.2,2.8-18.2,23.7-29.3,29.3
				c-11.2,5.6-30.7-2.8-40.5,5.2c-9.8,8-6.3,29.7-14,39.5c-7.7,9.8-29,11.2-34.6,22.7c-5.2,11.5,7,29.3,4.2,41.9
				c-2.8,12.2-21.3,23-21.3,36c0,12.9,18.5,23.7,22,36c2.8,12.6-9.4,30.7-4.2,41.9c5.6,11.5,26.9,12.9,34.6,22.7
				c3.3,4.2,4.5,10.6,5.7,17.2l-42.3,93.5l76.1,11.2l58.7,49.9l24.7-54.6l23.5,51.8l58.7-49.6l75.8-11.2l-41.2-91.3
				c1.1-6.5,2.4-12.8,5.6-16.9C386.6,298.1,407.9,296.7,413.5,285.1z"/>
		</defs>
		<clipPath id="SVGID_2_">
			<use xlink:href="#SVGID_1_"  style="overflow:visible;"/>
		</clipPath>
		<path class="st4" d="M335.6,5.1l-177.2,457l97.6,56l192.7,17.5c0,0,107.3-158.6,104.9-165.6c-2.3-7-59.5-206.4-60.6-212.2
			c-1.2-5.8-29.1-117.8-29.1-117.8L335.6,5.1z"/>
	</g>
</g>
</svg>
