<?xml version="1.0" encoding="utf-8"?>
<!-- Generator: Adobe Illustrator 19.1.0, SVG Export Plug-In . SVG Version: 6.00 Build 0)  -->
<svg version="1.1" id="Layer_1" xmlns="http://www.w3.org/2000/svg" xmlns:xlink="http://www.w3.org/1999/xlink" x="0px" y="0px"
	 width="512px" height="512px" viewBox="0 0 512 512" style="enable-background:new 0 0 512 512;" xml:space="preserve">
<style type="text/css">
	.st0{fill:#959699;}
	.st1{fill:#A4A4A5;}
	.st2{fill:#00C4B4;}
	.st3{fill:#EFEFEF;}
	.st4{clip-path:url(#SVGID_2_);}
	.st5{fill:#FFFFFF;}
	.st6{fill:#E0E0E0;}
	.st7{fill:#003764;}
	.st8{fill:#F9B54C;}
	.st9{opacity:0.6;}
	.st10{opacity:0.37;clip-path:url(#SVGID_4_);}
	.st11{opacity:0.37;clip-path:url(#SVGID_6_);}
	.st12{opacity:0.37;clip-path:url(#SVGID_8_);}
</style>
<g>
	<g>
		<polygon class="st0" points="158.6,305.5 150,290.5 158.6,275.4 175.8,275.4 184.5,290.5 175.8,305.5 		"/>
	</g>
	<g>
		<polygon class="st1" points="185.5,365.2 149,365.2 158.6,305.5 175.8,305.5 		"/>
	</g>
	<g>
		<path class="st2" d="M167.2,364.2c0,0-44.1-88.8-49.5-86.6c-40.9,18.3-69.9,59.2-71,107h241.5c-1.1-47.9-30.1-88.8-71.5-107
			C211.4,275.4,167.2,364.2,167.2,364.2z"/>
	</g>
	<g>
		<path class="st3" d="M225.3,170.5c-0.5,0-1.1,0-1.6,0V170c0-30.1-24.7-54.9-54.9-54.9l0,0c-30.1,0-54.3,24.7-54.3,54.9
			c0,0,0,0,0,0.5c-0.5,0-1.1-0.5-1.6-0.5c-4.8,0.5-8.1,9.1-7,19.9c0.5,10.8,5.4,18.8,9.7,18.8c0.5,0,0.5,0,1.1-0.5
			c7,32.8,32.3,56.5,52.7,56.5c17.8,0,44.6-24.2,52.2-57c0.5,0,1.1,0.5,1.1,0.5c4.8,0.5,9.1-8.1,9.7-18.8
			C232.9,179.6,229.6,170.5,225.3,170.5z"/>
	</g>
	<g>
		<path class="st0" d="M225.9,142c-0.5-4.8-2.2-9.1-3.8-13.4c-1.1-3.2-3.8-8.1-8.1-10.2c-2.2-1.1-3.8-1.1-5.9-1.6
			c-2.7-0.5-5.4-1.1-8.1-1.1c-0.5-2.7-3.8-6.5-8.1-7.5c-2.7-0.5-4.8-1.1-6.5-1.6c-2.7-0.5-5.9-1.6-10.2-1.6
			c-7-0.5-12.9,1.6-18.8,3.8c-4.3,1.6-9.1,3.2-14.5,3.2h-2.2c-4.8,0-9.7,0.5-14,3.2c-4.3,2.7-6.5,8.1-8.1,12.4
			c-1.1,2.7-2.2,4.8-3.2,7c-2.2,4.8-4.3,9.1-4.8,15.6c0,0.5,2.2,39.8,4.8,42.5l0.5,0.5h2.2c2.7,0,3.2-2.2,5.9-18.8
			c1.1-5.4,2.2-12.9,2.7-14c8.1-9.1,14.5-13.4,24.7-15.6c2.7-0.5,5.4-1.1,9.1-1.1c2.2,0,3.8,0,5.9,0c2.2,0,3.8,0,5.9,0h1.6
			c8.1,0,14.5-2.2,18.8-5.4l0,0c2.2,6.5,6.5,10.8,11.3,15.1c2.2,2.2,4.3,3.8,5.9,5.9c3.8,4.3,6.5,10.2,7.5,16.1v0.5
			c0.5,1.6,1.6,11.3,3.2,14c1.1,2.2,4.3,1.6,4.8-1.1L227,163C226.4,156.5,227,149,225.9,142z"/>
	</g>
</g>
<g>
	<defs>
		<rect id="SVGID_1_" x="231.9" y="108.2" width="240.7" height="276.4"/>
	</defs>
	<clipPath id="SVGID_2_">
		<use xlink:href="#SVGID_1_"  style="overflow:visible;"/>
	</clipPath>
	<g class="st4">
		<g>
			<polygon class="st5" points="418.4,528.6 353.5,479 349.6,476 347.4,478.1 281.6,528.6 			"/>
		</g>
		<g>
			<path class="st0" d="M269,282.6c-1.7-3-0.9-6.5,0.9-9.6c1.7-3,4.4-5.2,6.5-7.8c5.2-5.7,9.1-12.6,8.3-20
				c-0.4-3.9-2.6-7.4-3.9-11.3c-1.3-3.9-2.2-8.3,0-11.8c0.9-0.9,1.7-1.7,2.2-3c5.7-7.4,2.2-17.4,1.7-26.6
				c-0.9-15.2,6.5-29.6,13.5-43.1c4.8-9.1,10-19.2,18.7-24.8c5.2-3.5,11.8-5.2,17.9-6.5c16.5-2.6,34.4,0.4,47.9,10.4
				c10.4,7.8,17.9,19.2,22.6,31.3c4.8,12.2,7.4,25.3,9.6,37.9c1.3,7.4,2.2,16.1-2.2,22.2c-1.7,2.6-4.4,4.4-6.1,7
				c-2.2,3.5-3,7.4-3.9,11.3c-0.9,3.9-1.3,8.3,0,12.2c2.2,5.2,7.4,7.8,11.3,11.8c4.8,4.8,6.5,11.8,8.3,18.3c0.9,2.6,1.3,5.7,1.3,8.3
				c-0.9,7-7.4,11.3-13.9,13.9c-21.8,9.6-46.6,11.8-70.5,11.8c-6.5,0-13.1,0-19.2-2.2c-9.6-2.6-17.4-9.1-25.3-15.7
				C290.8,293.5,272.1,287.9,269,282.6z"/>
		</g>
		<g>
			<polygon class="st6" points="379.2,252.6 392.7,263.5 392.7,307.9 394.8,348.4 353.5,358 303.4,341.8 303.4,294 312.1,261.3 
				321.7,252.6 350.4,249.5 			"/>
		</g>
		<g>
			<path class="st5" d="M306.5,341.8c0,0,32.2,11.8,86.2,0L367,456.4l-61,9.1V341.8H306.5z"/>
		</g>
		<g>
			<path class="st7" d="M264.7,528.6l10.4-25.7c0,0-9.6-108,6.5-130.2l-10.4-62.3l-22.6-11.8c0,0-30.5,86.2,2.2,229.9H264.7z"/>
		</g>
		<g>
			<path class="st7" d="M258.6,528.6h81c7.4-30,14.8-57,18.7-59.7l-38.3-57l-13.5-69.7l6.1-67.9l8.7-21.8c0,0-19.6,28.7-73.1,46.2
				C248.6,298.7,313.9,382.3,258.6,528.6z"/>
		</g>
		<g>
			<path class="st7" d="M425.8,502.9l10.4,25.7h14.4c32.7-143.7,2.2-229.9,2.2-229.9l-23.1,11.3l-10.4,62.3
				C435.3,395,425.8,502.9,425.8,502.9z"/>
		</g>
		<g>
			<path class="st7" d="M342.6,468.5c3.9,2.6,11.3,30,18.7,59.7h81c-55.3-145.9,10-229.5,10-229.5c-53.6-17.4-73.1-46.2-73.1-46.2
				l8.7,21.8l6.5,67.9l-13.5,69.7L342.6,468.5z"/>
		</g>
		<g>
			<path class="st8" d="M353.9,256.9l25.7-4.4c0,0-11.3-16.5-11.8-41.8h-13.9h-6.5h-13.9c-0.4,25.3-11.8,41.8-11.8,41.8l25.7,4.4
				v1.3l3-0.4l3,0.4v-1.3H353.9z"/>
		</g>
		<g>
			<ellipse class="st3" cx="349.1" cy="201.6" rx="44.4" ry="62.7"/>
		</g>
		<g>
			<path class="st0" d="M340,132.4c0,0,21.8,58.3,65.3,74.5l-16.1-63.1L353,125.9L340,132.4z"/>
		</g>
		<g>
			<path class="st0" d="M352.2,132.9c0,0-32.2,47.5-54.4,57.9l6.1-36.6l21.3-20L352.2,132.9z"/>
		</g>
		<g>
			<path class="st2" d="M321.7,252.6c0,0-30.9,110.2,36.6,216c0,0-62.7-36.6-76.2-155.4l20.9-3l-14.4-9.6
				C289,300.9,287.3,263,321.7,252.6z"/>
		</g>
		<g>
			<path class="st2" d="M379.2,252.6c0,0,30.9,110.2-36.6,216c0,0,62.7-36.6,76.2-155.4l-20.9-3l14.4-9.6
				C411.8,300.9,413.6,263,379.2,252.6z"/>
		</g>
	</g>
</g>
<g class="st9">
	<g>
		<defs>
			<path id="SVGID_3_" d="M226,170.7l0.6-7.7c-0.5-6.5,0-14-1.1-21c-0.5-4.8-2.2-9.1-3.8-13.4c-1.1-3.2-3.8-8.1-8.1-10.2
				c-2.2-1.1-3.8-1.1-5.9-1.6c-2.7-0.5-5.4-1.1-8.1-1.1c-0.5-2.7-3.8-6.5-8.1-7.5c-2.7-0.5-4.8-1.1-6.5-1.6
				c-2.7-0.5-5.9-1.6-10.2-1.6c-7-0.5-12.9,1.6-18.8,3.8c-4.3,1.6-9.1,3.2-14.5,3.2h-2.2c-4.8,0-9.7,0.5-14,3.2
				c-4.3,2.7-6.5,8.1-8.1,12.4c-1.1,2.7-2.2,4.8-3.2,7c-2.2,4.8-4.3,9.1-4.8,15.6c0,0.3,0.5,10.3,1.4,20.5
				c-3.8,2.2-6.1,9.9-5.2,19.3c0.5,10.8,5.4,18.8,9.7,18.8c0.5,0,0.5,0,1.1-0.5c7,32.8,32.3,56.5,52.7,56.5
				c17.8,0,44.6-24.2,52.2-57c0.5,0,1.1,0.5,1.1,0.5c4.8,0.5,9.1-8.1,9.7-18.8C232.6,180.4,229.8,171.9,226,170.7z"/>
		</defs>
		<clipPath id="SVGID_4_">
			<use xlink:href="#SVGID_3_"  style="overflow:visible;"/>
		</clipPath>
		<path class="st10" d="M221.7,81.6L98.8,398.5c0,0,244.5,0.4,241.8-7.7C337.9,382.8,221.7,81.6,221.7,81.6z"/>
	</g>
	<g>
		<defs>
			<path id="SVGID_5_" d="M216.5,277.6c-3.4-1.4-22.3,33.7-35.8,59.6l-5.1-31.6l8.6-15.1l-8.6-15.1h-17.2l-8.6,15.1l8.6,15.1
				l-5.1,31.6c-13.4-25.9-32.3-61-35.8-59.6c-40.9,18.3-69.9,59.2-71,107H288C286.9,336.7,257.9,295.8,216.5,277.6z"/>
		</defs>
		<clipPath id="SVGID_6_">
			<use xlink:href="#SVGID_5_"  style="overflow:visible;"/>
		</clipPath>
		<path class="st11" d="M221.7,81.6L98.8,398.5c0,0,244.5,0.4,241.8-7.7C337.9,382.8,221.7,81.6,221.7,81.6z"/>
	</g>
</g>
<g class="st9">
	<defs>
		<path id="SVGID_7_" class="st9" d="M453,298.7l-0.7,0.3c0.2-0.2,0.3-0.3,0.3-0.3c-11-3.6-20.5-7.6-28.8-11.8
			c-0.2-2.1-0.6-4.4-1.2-6.5c-1.7-6.5-3.5-13.5-8.3-18.3c-3.9-3.9-9.1-6.5-11.3-11.8c-1.3-3.9-0.9-8.3,0-12.2s1.7-7.8,3.9-11.3
			c1.7-2.6,4.4-4.4,6.1-7c4.4-6.1,3.5-14.8,2.2-22.2c-2.2-12.6-4.8-25.7-9.6-37.9c-4.8-12.2-12.2-23.5-22.6-31.3
			c-13.5-10-31.3-13.1-47.9-10.4c-6.1,1.3-12.6,3-17.9,6.5c-8.7,5.7-13.9,15.7-18.7,24.8c-7,13.5-14.4,27.9-13.5,43.1
			c0.4,9.1,3.9,19.2-1.7,26.6c-0.4,1.3-1.3,2.2-2.2,3c-2.2,3.5-1.3,7.8,0,11.8c1.3,3.9,3.5,7.4,3.9,11.3c0.9,7.4-3,14.4-8.3,20
			c-2.2,2.6-4.8,4.8-6.5,7.8c-1.7,3-2.6,6.5-0.9,9.6c1,1.6,3.5,3.3,6.6,5c-8,3.9-17.1,7.8-27.5,11.1c0,0,0.1,0.1,0.3,0.4
			c-2,6-29.2,91.1,2.3,229.5h7.8h6.1h17h57.9h78.8l-0.6-0.4h18.2l0.2,0.4h14.4C483.5,385,453,298.7,453,298.7z"/>
	</defs>
	<clipPath id="SVGID_8_">
		<use xlink:href="#SVGID_7_"  style="overflow:visible;"/>
	</clipPath>
	<polygon class="st12" points="401.7,81.6 284.2,384.6 476.8,384.6 	"/>
</g>
</svg>
